<svg width="930" height="123" viewBox="0 0 930 123" fill="none" xmlns="http://www.w3.org/2000/svg">
<g clip-path="url(#clip0_88_72)">
<path d="M31.28 90H-0.28V2.28H30.44C56.36 2.28 74.24 20.16 74.24 46.32C74.24 72.12 56.72 90 31.28 90ZM29 16.44H15.08V75.84H29.84C47.36 75.84 58.04 64.56 58.04 46.32C58.04 27.72 47.12 16.44 29 16.44ZM93.7081 18.84C88.6681 18.84 84.7081 14.88 84.7081 9.95999C84.7081 5.04 88.6681 1.2 93.7081 1.2C98.5081 1.2 102.468 5.04 102.468 9.95999C102.468 14.88 98.5081 18.84 93.7081 18.84ZM86.3881 90V30.72H101.028V90H86.3881ZM112.794 59.04C112.794 41.76 124.074 28.8 140.994 28.8C149.874 28.8 156.834 32.52 160.314 38.88L161.154 30.72H174.714V87C174.714 106.8 162.834 119.16 143.634 119.16C126.594 119.16 114.954 109.44 113.154 93.6H127.794C128.754 101.28 134.634 105.84 143.634 105.84C153.714 105.84 160.194 99.48 160.194 89.64V79.8C156.474 85.32 149.154 88.8 140.634 88.8C123.834 88.8 112.794 76.2 112.794 59.04ZM127.554 58.68C127.554 68.64 133.914 76.08 143.514 76.08C153.594 76.08 159.834 69 159.834 58.68C159.834 48.6 153.714 41.64 143.514 41.64C133.794 41.64 127.554 48.96 127.554 58.68ZM197.185 18.84C192.145 18.84 188.185 14.88 188.185 9.95999C188.185 5.04 192.145 1.2 197.185 1.2C201.985 1.2 205.945 5.04 205.945 9.95999C205.945 14.88 201.985 18.84 197.185 18.84ZM189.865 90V30.72H204.505V90H189.865ZM239.79 90H225.15V42.96H213.75V30.72H225.15V12.24H239.79V30.72H251.31V42.96H239.79V90ZM277.7 91.56C265.1 91.56 257.42 84.24 257.42 73.08C257.42 62.16 265.34 55.32 279.38 54.24L297.14 52.92V51.6C297.14 43.56 292.34 40.32 284.9 40.32C276.26 40.32 271.46 43.92 271.46 50.16H258.98C258.98 37.32 269.54 28.92 285.62 28.92C301.58 28.92 311.42 37.56 311.42 54V90H298.58L297.5 81.24C294.98 87.36 286.94 91.56 277.7 91.56ZM282.5 80.52C291.5 80.52 297.26 75.12 297.26 66V62.88L284.9 63.84C275.78 64.68 272.3 67.68 272.3 72.48C272.3 77.88 275.9 80.52 282.5 80.52ZM340.562 90H326.042V0.719998H340.562V90ZM395.159 91.44C369.599 91.44 353.039 73.68 353.039 46.2C353.039 18.96 370.199 0.839996 395.879 0.839996C416.639 0.839996 432.119 12.96 435.119 31.8H418.919C415.919 21.6 407.159 15.6 395.519 15.6C379.319 15.6 369.119 27.36 369.119 46.08C369.119 64.68 379.439 76.68 395.519 76.68C407.399 76.68 416.519 70.44 419.399 60.72H435.359C431.999 79.2 415.919 91.44 395.159 91.44ZM484.174 30.48V44.04H478.774C468.214 44.04 461.614 49.68 461.614 61.2V90H446.974V30.84H460.774L461.614 39.48C464.134 33.6 469.774 29.64 477.694 29.64C479.734 29.64 481.774 29.88 484.174 30.48ZM534.283 30.72H548.923V90H535.363L534.283 82.08C530.683 87.72 523.003 91.56 515.083 91.56C501.403 91.56 493.363 82.32 493.363 67.8V30.72H508.003V62.64C508.003 73.92 512.443 78.48 520.603 78.48C529.843 78.48 534.283 73.08 534.283 61.8V30.72ZM578.684 90H564.044V30.72H577.484L578.684 37.68C581.684 32.76 587.684 28.92 596.204 28.92C605.204 28.92 611.444 33.36 614.564 40.2C617.564 33.36 624.524 28.92 633.524 28.92C647.924 28.92 655.844 37.56 655.844 51.24V90H641.324V55.08C641.324 46.56 636.764 42.12 629.804 42.12C622.724 42.12 617.324 46.68 617.324 56.4V90H602.684V54.96C602.684 46.68 598.244 42.24 591.284 42.24C584.324 42.24 578.684 46.8 578.684 56.4V90ZM670.216 117.48V30.72H683.776L684.736 39.72C688.336 32.88 696.136 28.92 705.136 28.92C721.816 28.92 732.856 41.04 732.856 59.64C732.856 78.12 722.776 91.56 705.136 91.56C696.256 91.56 688.576 88.08 684.856 82.08V117.48H670.216ZM684.976 60.36C684.976 71.04 691.576 78.36 701.656 78.36C711.976 78.36 718.096 70.92 718.096 60.36C718.096 49.8 711.976 42.24 701.656 42.24C691.576 42.24 684.976 49.68 684.976 60.36ZM771.033 91.56C753.393 91.56 741.033 78.72 741.033 60.36C741.033 41.76 753.153 28.92 770.553 28.92C788.313 28.92 799.593 40.8 799.593 59.28V63.72L754.953 63.84C756.033 74.28 761.553 79.56 771.273 79.56C779.313 79.56 784.593 76.44 786.273 70.8H799.833C797.313 83.76 786.513 91.56 771.033 91.56ZM770.673 40.92C762.033 40.92 756.753 45.6 755.313 54.48H785.073C785.073 46.32 779.433 40.92 770.673 40.92ZM830.884 90H816.244V42.96H804.844V30.72H816.244V12.24H830.884V30.72H842.404V42.96H830.884V90ZM846.945 72H860.865C860.985 77.16 864.825 80.4 871.545 80.4C878.385 80.4 882.105 77.64 882.105 73.32C882.105 70.32 880.545 68.16 875.265 66.96L864.585 64.44C853.905 62.04 848.745 57 848.745 47.52C848.745 35.88 858.585 28.92 872.265 28.92C885.585 28.92 894.585 36.6 894.705 48.12H880.785C880.665 43.08 877.305 39.84 871.665 39.84C865.905 39.84 862.545 42.48 862.545 46.92C862.545 50.28 865.185 52.44 870.225 53.64L880.905 56.16C890.865 58.44 895.905 63 895.905 72.12C895.905 84.12 885.705 91.56 871.065 91.56C856.305 91.56 846.945 83.64 846.945 72ZM916.541 91.44C911.261 91.44 906.821 87.12 906.821 81.96C906.821 76.68 911.261 72.36 916.541 72.36C921.821 72.36 926.261 76.68 926.261 81.96C926.261 87.12 921.821 91.44 916.541 91.44Z" fill="white"/>
</g>
<defs>
<clipPath id="clip0_88_72">
<rect width="930" height="123" fill="white"/>
</clipPath>
</defs>
</svg>
