<svg width="318" height="318" viewBox="0 0 318 318" fill="none" xmlns="http://www.w3.org/2000/svg">
<path d="M102.137 24.7043V29.9693C101.477 30.4553 100.772 30.8123 100.022 31.0403C99.278 31.2623 98.48 31.3733 97.628 31.3733C96.566 31.3733 95.603 31.2083 94.739 30.8783C93.881 30.5483 93.146 30.0893 92.534 29.5013C91.928 28.9133 91.46 28.2113 91.13 27.3953C90.8 26.5793 90.635 25.6883 90.635 24.7223C90.635 23.7443 90.794 22.8473 91.112 22.0313C91.43 21.2153 91.88 20.5133 92.462 19.9253C93.05 19.3373 93.761 18.8813 94.595 18.5573C95.429 18.2333 96.365 18.0713 97.403 18.0713C97.931 18.0713 98.423 18.1133 98.879 18.1973C99.341 18.2813 99.767 18.3983 100.157 18.5483C100.553 18.6923 100.913 18.8693 101.237 19.0793C101.561 19.2893 101.858 19.5203 102.128 19.7723L101.435 20.8703C101.327 21.0443 101.186 21.1523 101.012 21.1943C100.838 21.2303 100.649 21.1853 100.445 21.0593C100.247 20.9453 100.049 20.8313 99.851 20.7173C99.653 20.6033 99.431 20.5043 99.185 20.4203C98.945 20.3363 98.672 20.2673 98.366 20.2133C98.066 20.1593 97.718 20.1323 97.322 20.1323C96.68 20.1323 96.098 20.2403 95.576 20.4563C95.06 20.6723 94.619 20.9813 94.253 21.3833C93.887 21.7853 93.605 22.2683 93.407 22.8323C93.209 23.3963 93.11 24.0263 93.11 24.7223C93.11 25.4663 93.215 26.1323 93.425 26.7203C93.641 27.3023 93.941 27.7973 94.325 28.2053C94.715 28.6073 95.183 28.9163 95.729 29.1323C96.275 29.3423 96.884 29.4473 97.556 29.4473C98.036 29.4473 98.465 29.3963 98.843 29.2943C99.221 29.1923 99.59 29.0543 99.95 28.8803V26.5223H98.312C98.156 26.5223 98.033 26.4803 97.943 26.3963C97.859 26.3063 97.817 26.1983 97.817 26.0723V24.7043H102.137ZM108.639 21.8513C109.323 21.8513 109.944 21.9623 110.502 22.1843C111.066 22.4063 111.546 22.7213 111.942 23.1293C112.344 23.5373 112.653 24.0353 112.869 24.6233C113.085 25.2113 113.193 25.8683 113.193 26.5943C113.193 27.3263 113.085 27.9863 112.869 28.5743C112.653 29.1623 112.344 29.6633 111.942 30.0773C111.546 30.4913 111.066 30.8093 110.502 31.0313C109.944 31.2533 109.323 31.3643 108.639 31.3643C107.949 31.3643 107.322 31.2533 106.758 31.0313C106.194 30.8093 105.711 30.4913 105.309 30.0773C104.913 29.6633 104.604 29.1623 104.382 28.5743C104.166 27.9863 104.058 27.3263 104.058 26.5943C104.058 25.8683 104.166 25.2113 104.382 24.6233C104.604 24.0353 104.913 23.5373 105.309 23.1293C105.711 22.7213 106.194 22.4063 106.758 22.1843C107.322 21.9623 107.949 21.8513 108.639 21.8513ZM108.639 29.6543C109.407 29.6543 109.974 29.3963 110.34 28.8803C110.712 28.3643 110.898 27.6083 110.898 26.6123C110.898 25.6163 110.712 24.8573 110.34 24.3353C109.974 23.8133 109.407 23.5523 108.639 23.5523C107.859 23.5523 107.28 23.8163 106.902 24.3443C106.53 24.8663 106.344 25.6223 106.344 26.6123C106.344 27.6023 106.53 28.3583 106.902 28.8803C107.28 29.3963 107.859 29.6543 108.639 29.6543ZM119.515 21.8513C120.199 21.8513 120.82 21.9623 121.378 22.1843C121.942 22.4063 122.422 22.7213 122.818 23.1293C123.22 23.5373 123.529 24.0353 123.745 24.6233C123.961 25.2113 124.069 25.8683 124.069 26.5943C124.069 27.3263 123.961 27.9863 123.745 28.5743C123.529 29.1623 123.22 29.6633 122.818 30.0773C122.422 30.4913 121.942 30.8093 121.378 31.0313C120.82 31.2533 120.199 31.3643 119.515 31.3643C118.825 31.3643 118.198 31.2533 117.634 31.0313C117.07 30.8093 116.587 30.4913 116.185 30.0773C115.789 29.6633 115.48 29.1623 115.258 28.5743C115.042 27.9863 114.934 27.3263 114.934 26.5943C114.934 25.8683 115.042 25.2113 115.258 24.6233C115.48 24.0353 115.789 23.5373 116.185 23.1293C116.587 22.7213 117.07 22.4063 117.634 22.1843C118.198 21.9623 118.825 21.8513 119.515 21.8513ZM119.515 29.6543C120.283 29.6543 120.85 29.3963 121.216 28.8803C121.588 28.3643 121.774 27.6083 121.774 26.6123C121.774 25.6163 121.588 24.8573 121.216 24.3353C120.85 23.8133 120.283 23.5523 119.515 23.5523C118.735 23.5523 118.156 23.8163 117.778 24.3443C117.406 24.8663 117.22 25.6223 117.22 26.6123C117.22 27.6023 117.406 28.3583 117.778 28.8803C118.156 29.3963 118.735 29.6543 119.515 29.6543ZM129.61 26.3873C129.886 26.3873 130.126 26.3513 130.33 26.2793C130.534 26.2013 130.702 26.0963 130.834 25.9643C130.972 25.8323 131.074 25.6733 131.14 25.4873C131.212 25.3013 131.248 25.0973 131.248 24.8753C131.248 24.4193 131.11 24.0593 130.834 23.7953C130.564 23.5253 130.156 23.3903 129.61 23.3903C129.064 23.3903 128.653 23.5253 128.377 23.7953C128.107 24.0593 127.972 24.4193 127.972 24.8753C127.972 25.0913 128.005 25.2923 128.071 25.4783C128.143 25.6643 128.245 25.8263 128.377 25.9643C128.515 26.0963 128.686 26.2013 128.89 26.2793C129.1 26.3513 129.34 26.3873 129.61 26.3873ZM132.121 31.6433C132.121 31.4633 132.067 31.3163 131.959 31.2023C131.851 31.0883 131.704 31.0013 131.518 30.9413C131.332 30.8753 131.113 30.8273 130.861 30.7973C130.615 30.7673 130.351 30.7463 130.069 30.7343C129.793 30.7163 129.505 30.7013 129.205 30.6893C128.911 30.6773 128.623 30.6533 128.341 30.6173C128.095 30.7553 127.894 30.9173 127.738 31.1033C127.588 31.2893 127.513 31.5053 127.513 31.7513C127.513 31.9133 127.552 32.0633 127.63 32.2013C127.714 32.3453 127.843 32.4683 128.017 32.5703C128.197 32.6723 128.428 32.7503 128.71 32.8043C128.992 32.8643 129.337 32.8943 129.745 32.8943C130.159 32.8943 130.516 32.8613 130.816 32.7953C131.116 32.7353 131.362 32.6483 131.554 32.5343C131.752 32.4263 131.896 32.2943 131.986 32.1383C132.076 31.9883 132.121 31.8233 132.121 31.6433ZM134.335 22.3103V23.1383C134.335 23.4023 134.176 23.5643 133.858 23.6243L133.03 23.7773C133.156 24.0953 133.219 24.4433 133.219 24.8213C133.219 25.2773 133.126 25.6913 132.94 26.0633C132.76 26.4293 132.508 26.7413 132.184 26.9993C131.86 27.2573 131.476 27.4583 131.032 27.6023C130.594 27.7403 130.12 27.8093 129.61 27.8093C129.43 27.8093 129.256 27.8003 129.088 27.7823C128.92 27.7643 128.755 27.7403 128.593 27.7103C128.305 27.8843 128.161 28.0793 128.161 28.2953C128.161 28.4813 128.245 28.6193 128.413 28.7093C128.587 28.7933 128.815 28.8533 129.097 28.8893C129.379 28.9253 129.7 28.9493 130.06 28.9613C130.42 28.9673 130.789 28.9853 131.167 29.0153C131.545 29.0453 131.914 29.0993 132.274 29.1773C132.634 29.2493 132.955 29.3663 133.237 29.5283C133.519 29.6903 133.744 29.9123 133.912 30.1943C134.086 30.4703 134.173 30.8273 134.173 31.2653C134.173 31.6733 134.071 32.0693 133.867 32.4533C133.669 32.8373 133.378 33.1793 132.994 33.4793C132.616 33.7793 132.148 34.0193 131.59 34.1993C131.038 34.3853 130.408 34.4783 129.7 34.4783C129.004 34.4783 128.398 34.4093 127.882 34.2713C127.366 34.1393 126.937 33.9593 126.595 33.7313C126.253 33.5093 125.998 33.2513 125.83 32.9573C125.662 32.6633 125.578 32.3573 125.578 32.0393C125.578 31.6073 125.707 31.2473 125.965 30.9593C126.229 30.6653 126.589 30.4313 127.045 30.2573C126.799 30.1313 126.604 29.9633 126.46 29.7533C126.316 29.5433 126.244 29.2673 126.244 28.9253C126.244 28.7873 126.268 28.6463 126.316 28.5023C126.37 28.3523 126.445 28.2053 126.541 28.0613C126.643 27.9173 126.769 27.7823 126.919 27.6563C127.069 27.5243 127.246 27.4073 127.45 27.3053C126.982 27.0533 126.613 26.7173 126.343 26.2973C126.079 25.8773 125.947 25.3853 125.947 24.8213C125.947 24.3653 126.037 23.9543 126.217 23.5883C126.403 23.2163 126.658 22.9013 126.982 22.6433C127.312 22.3793 127.699 22.1783 128.143 22.0403C128.593 21.9023 129.082 21.8333 129.61 21.8333C130.006 21.8333 130.378 21.8753 130.726 21.9593C131.074 22.0373 131.392 22.1543 131.68 22.3103H134.335ZM138.534 17.8553V31.2293H136.311V17.8553H138.534ZM147.238 25.5503C147.238 25.2623 147.196 24.9923 147.112 24.7403C147.034 24.4823 146.914 24.2573 146.752 24.0653C146.59 23.8733 146.383 23.7233 146.131 23.6153C145.885 23.5013 145.597 23.4443 145.267 23.4443C144.625 23.4443 144.118 23.6273 143.746 23.9933C143.38 24.3593 143.146 24.8783 143.044 25.5503H147.238ZM142.999 26.8913C143.035 27.3653 143.119 27.7763 143.251 28.1243C143.383 28.4663 143.557 28.7513 143.773 28.9793C143.989 29.2013 144.244 29.3693 144.538 29.4833C144.838 29.5913 145.168 29.6453 145.528 29.6453C145.888 29.6453 146.197 29.6033 146.455 29.5193C146.719 29.4353 146.947 29.3423 147.139 29.2403C147.337 29.1383 147.508 29.0453 147.652 28.9613C147.802 28.8773 147.946 28.8353 148.084 28.8353C148.27 28.8353 148.408 28.9043 148.498 29.0423L149.137 29.8523C148.891 30.1403 148.615 30.3833 148.309 30.5813C148.003 30.7733 147.682 30.9293 147.346 31.0493C147.016 31.1633 146.677 31.2443 146.329 31.2923C145.987 31.3403 145.654 31.3643 145.33 31.3643C144.688 31.3643 144.091 31.2593 143.539 31.0493C142.987 30.8333 142.507 30.5183 142.099 30.1043C141.691 29.6843 141.37 29.1683 141.136 28.5563C140.902 27.9383 140.785 27.2243 140.785 26.4143C140.785 25.7843 140.887 25.1933 141.091 24.6413C141.295 24.0833 141.586 23.6003 141.964 23.1923C142.348 22.7783 142.813 22.4513 143.359 22.2113C143.911 21.9713 144.532 21.8513 145.222 21.8513C145.804 21.8513 146.341 21.9443 146.833 22.1303C147.325 22.3163 147.748 22.5893 148.102 22.9493C148.456 23.3033 148.732 23.7413 148.93 24.2633C149.134 24.7793 149.236 25.3703 149.236 26.0363C149.236 26.3723 149.2 26.6003 149.128 26.7203C149.056 26.8343 148.918 26.8913 148.714 26.8913H142.999ZM160.645 24.4073C161.101 24.4073 161.497 24.3503 161.833 24.2363C162.175 24.1223 162.454 23.9663 162.67 23.7683C162.892 23.5643 163.057 23.3243 163.165 23.0483C163.273 22.7723 163.327 22.4693 163.327 22.1393C163.327 21.4793 163.108 20.9723 162.67 20.6183C162.238 20.2643 161.575 20.0873 160.681 20.0873H159.133V24.4073H160.645ZM166.873 31.2293H164.686C164.272 31.2293 163.972 31.0673 163.786 30.7433L161.05 26.5763C160.948 26.4203 160.834 26.3093 160.708 26.2433C160.588 26.1773 160.408 26.1443 160.168 26.1443H159.133V31.2293H156.712V18.2153H160.681C161.563 18.2153 162.319 18.3083 162.949 18.4943C163.585 18.6743 164.104 18.9293 164.506 19.2593C164.914 19.5893 165.214 19.9853 165.406 20.4473C165.598 20.9033 165.694 21.4073 165.694 21.9593C165.694 22.3973 165.628 22.8113 165.496 23.2013C165.37 23.5913 165.184 23.9453 164.938 24.2633C164.698 24.5813 164.398 24.8603 164.038 25.1003C163.684 25.3403 163.279 25.5293 162.823 25.6673C162.979 25.7573 163.123 25.8653 163.255 25.9913C163.387 26.1113 163.507 26.2553 163.615 26.4233L166.873 31.2293ZM173.205 27.2873C172.563 27.3173 172.023 27.3743 171.585 27.4583C171.147 27.5363 170.796 27.6383 170.532 27.7643C170.268 27.8903 170.079 28.0373 169.965 28.2053C169.851 28.3733 169.794 28.5563 169.794 28.7543C169.794 29.1443 169.908 29.4233 170.136 29.5913C170.37 29.7593 170.673 29.8433 171.045 29.8433C171.501 29.8433 171.894 29.7623 172.224 29.6003C172.56 29.4323 172.887 29.1803 173.205 28.8443V27.2873ZM168.111 23.2823C169.173 22.3103 170.451 21.8243 171.945 21.8243C172.485 21.8243 172.968 21.9143 173.394 22.0943C173.82 22.2683 174.18 22.5143 174.474 22.8323C174.768 23.1443 174.99 23.5193 175.14 23.9573C175.296 24.3953 175.374 24.8753 175.374 25.3973V31.2293H174.366C174.156 31.2293 173.994 31.1993 173.88 31.1393C173.766 31.0733 173.676 30.9443 173.61 30.7523L173.412 30.0863C173.178 30.2963 172.95 30.4823 172.728 30.6443C172.506 30.8003 172.275 30.9323 172.035 31.0403C171.795 31.1483 171.537 31.2293 171.261 31.2833C170.991 31.3433 170.691 31.3733 170.361 31.3733C169.971 31.3733 169.611 31.3223 169.281 31.2203C168.951 31.1123 168.666 30.9533 168.426 30.7433C168.186 30.5333 168 30.2723 167.868 29.9603C167.736 29.6483 167.67 29.2853 167.67 28.8713C167.67 28.6373 167.709 28.4063 167.787 28.1783C167.865 27.9443 167.991 27.7223 168.165 27.5123C168.345 27.3023 168.576 27.1043 168.858 26.9183C169.14 26.7323 169.485 26.5703 169.893 26.4323C170.307 26.2943 170.787 26.1833 171.333 26.0993C171.879 26.0093 172.503 25.9553 173.205 25.9373V25.3973C173.205 24.7793 173.073 24.3233 172.809 24.0293C172.545 23.7293 172.164 23.5793 171.666 23.5793C171.306 23.5793 171.006 23.6213 170.766 23.7053C170.532 23.7893 170.325 23.8853 170.145 23.9933C169.965 24.0953 169.8 24.1883 169.65 24.2723C169.506 24.3563 169.344 24.3983 169.164 24.3983C169.008 24.3983 168.876 24.3593 168.768 24.2813C168.66 24.1973 168.573 24.1013 168.507 23.9933L168.111 23.2823ZM180.087 23.1293C180.273 22.9433 180.468 22.7723 180.672 22.6163C180.882 22.4543 181.101 22.3193 181.329 22.2113C181.563 22.0973 181.812 22.0103 182.076 21.9503C182.34 21.8843 182.628 21.8513 182.94 21.8513C183.444 21.8513 183.891 21.9383 184.281 22.1123C184.671 22.2803 184.995 22.5203 185.253 22.8323C185.517 23.1383 185.715 23.5073 185.847 23.9393C185.985 24.3653 186.054 24.8363 186.054 25.3523V31.2293H183.831V25.3523C183.831 24.7883 183.702 24.3533 183.444 24.0473C183.186 23.7353 182.793 23.5793 182.265 23.5793C181.881 23.5793 181.521 23.6663 181.185 23.8403C180.849 24.0143 180.531 24.2513 180.231 24.5513V31.2293H178.008V21.9953H179.367C179.655 21.9953 179.844 22.1303 179.934 22.4003L180.087 23.1293ZM190.931 17.8553V25.5143H191.345C191.495 25.5143 191.612 25.4963 191.696 25.4603C191.786 25.4183 191.876 25.3373 191.966 25.2173L194.261 22.3823C194.357 22.2563 194.462 22.1603 194.576 22.0943C194.696 22.0283 194.849 21.9953 195.035 21.9953H197.069L194.198 25.4243C193.994 25.6943 193.772 25.9013 193.532 26.0453C193.658 26.1353 193.769 26.2403 193.865 26.3603C193.967 26.4803 194.063 26.6093 194.153 26.7473L197.231 31.2293H195.224C195.05 31.2293 194.9 31.2023 194.774 31.1483C194.648 31.0883 194.543 30.9833 194.459 30.8333L192.101 27.3323C192.017 27.1943 191.93 27.1043 191.84 27.0623C191.75 27.0203 191.615 26.9993 191.435 26.9993H190.931V31.2293H188.708V17.8553H190.931ZM201.167 21.9953V31.2293H198.935V21.9953H201.167ZM201.473 19.3043C201.473 19.4963 201.434 19.6763 201.356 19.8443C201.278 20.0123 201.173 20.1593 201.041 20.2853C200.915 20.4113 200.765 20.5133 200.591 20.5913C200.417 20.6633 200.231 20.6993 200.033 20.6993C199.841 20.6993 199.658 20.6633 199.484 20.5913C199.316 20.5133 199.169 20.4113 199.043 20.2853C198.917 20.1593 198.815 20.0123 198.737 19.8443C198.665 19.6763 198.629 19.4963 198.629 19.3043C198.629 19.1063 198.665 18.9203 198.737 18.7463C198.815 18.5723 198.917 18.4223 199.043 18.2963C199.169 18.1703 199.316 18.0713 199.484 17.9993C199.658 17.9213 199.841 17.8823 200.033 17.8823C200.231 17.8823 200.417 17.9213 200.591 17.9993C200.765 18.0713 200.915 18.1703 201.041 18.2963C201.173 18.4223 201.278 18.5723 201.356 18.7463C201.434 18.9203 201.473 19.1063 201.473 19.3043ZM206.053 23.1293C206.239 22.9433 206.434 22.7723 206.638 22.6163C206.848 22.4543 207.067 22.3193 207.295 22.2113C207.529 22.0973 207.778 22.0103 208.042 21.9503C208.306 21.8843 208.594 21.8513 208.906 21.8513C209.41 21.8513 209.857 21.9383 210.247 22.1123C210.637 22.2803 210.961 22.5203 211.219 22.8323C211.483 23.1383 211.681 23.5073 211.813 23.9393C211.951 24.3653 212.02 24.8363 212.02 25.3523V31.2293H209.797V25.3523C209.797 24.7883 209.668 24.3533 209.41 24.0473C209.152 23.7353 208.759 23.5793 208.231 23.5793C207.847 23.5793 207.487 23.6663 207.151 23.8403C206.815 24.0143 206.497 24.2513 206.197 24.5513V31.2293H203.974V21.9953H205.333C205.621 21.9953 205.81 22.1303 205.9 22.4003L206.053 23.1293ZM218.049 26.3873C218.325 26.3873 218.565 26.3513 218.769 26.2793C218.973 26.2013 219.141 26.0963 219.273 25.9643C219.411 25.8323 219.513 25.6733 219.579 25.4873C219.651 25.3013 219.687 25.0973 219.687 24.8753C219.687 24.4193 219.549 24.0593 219.273 23.7953C219.003 23.5253 218.595 23.3903 218.049 23.3903C217.503 23.3903 217.092 23.5253 216.816 23.7953C216.546 24.0593 216.411 24.4193 216.411 24.8753C216.411 25.0913 216.444 25.2923 216.51 25.4783C216.582 25.6643 216.684 25.8263 216.816 25.9643C216.954 26.0963 217.125 26.2013 217.329 26.2793C217.539 26.3513 217.779 26.3873 218.049 26.3873ZM220.56 31.6433C220.56 31.4633 220.506 31.3163 220.398 31.2023C220.29 31.0883 220.143 31.0013 219.957 30.9413C219.771 30.8753 219.552 30.8273 219.3 30.7973C219.054 30.7673 218.79 30.7463 218.508 30.7343C218.232 30.7163 217.944 30.7013 217.644 30.6893C217.35 30.6773 217.062 30.6533 216.78 30.6173C216.534 30.7553 216.333 30.9173 216.177 31.1033C216.027 31.2893 215.952 31.5053 215.952 31.7513C215.952 31.9133 215.991 32.0633 216.069 32.2013C216.153 32.3453 216.282 32.4683 216.456 32.5703C216.636 32.6723 216.867 32.7503 217.149 32.8043C217.431 32.8643 217.776 32.8943 218.184 32.8943C218.598 32.8943 218.955 32.8613 219.255 32.7953C219.555 32.7353 219.801 32.6483 219.993 32.5343C220.191 32.4263 220.335 32.2943 220.425 32.1383C220.515 31.9883 220.56 31.8233 220.56 31.6433ZM222.774 22.3103V23.1383C222.774 23.4023 222.615 23.5643 222.297 23.6243L221.469 23.7773C221.595 24.0953 221.658 24.4433 221.658 24.8213C221.658 25.2773 221.565 25.6913 221.379 26.0633C221.199 26.4293 220.947 26.7413 220.623 26.9993C220.299 27.2573 219.915 27.4583 219.471 27.6023C219.033 27.7403 218.559 27.8093 218.049 27.8093C217.869 27.8093 217.695 27.8003 217.527 27.7823C217.359 27.7643 217.194 27.7403 217.032 27.7103C216.744 27.8843 216.6 28.0793 216.6 28.2953C216.6 28.4813 216.684 28.6193 216.852 28.7093C217.026 28.7933 217.254 28.8533 217.536 28.8893C217.818 28.9253 218.139 28.9493 218.499 28.9613C218.859 28.9673 219.228 28.9853 219.606 29.0153C219.984 29.0453 220.353 29.0993 220.713 29.1773C221.073 29.2493 221.394 29.3663 221.676 29.5283C221.958 29.6903 222.183 29.9123 222.351 30.1943C222.525 30.4703 222.612 30.8273 222.612 31.2653C222.612 31.6733 222.51 32.0693 222.306 32.4533C222.108 32.8373 221.817 33.1793 221.433 33.4793C221.055 33.7793 220.587 34.0193 220.029 34.1993C219.477 34.3853 218.847 34.4783 218.139 34.4783C217.443 34.4783 216.837 34.4093 216.321 34.2713C215.805 34.1393 215.376 33.9593 215.034 33.7313C214.692 33.5093 214.437 33.2513 214.269 32.9573C214.101 32.6633 214.017 32.3573 214.017 32.0393C214.017 31.6073 214.146 31.2473 214.404 30.9593C214.668 30.6653 215.028 30.4313 215.484 30.2573C215.238 30.1313 215.043 29.9633 214.899 29.7533C214.755 29.5433 214.683 29.2673 214.683 28.9253C214.683 28.7873 214.707 28.6463 214.755 28.5023C214.809 28.3523 214.884 28.2053 214.98 28.0613C215.082 27.9173 215.208 27.7823 215.358 27.6563C215.508 27.5243 215.685 27.4073 215.889 27.3053C215.421 27.0533 215.052 26.7173 214.782 26.2973C214.518 25.8773 214.386 25.3853 214.386 24.8213C214.386 24.3653 214.476 23.9543 214.656 23.5883C214.842 23.2163 215.097 22.9013 215.421 22.6433C215.751 22.3793 216.138 22.1783 216.582 22.0403C217.032 21.9023 217.521 21.8333 218.049 21.8333C218.445 21.8333 218.817 21.8753 219.165 21.9593C219.513 22.0373 219.831 22.1543 220.119 22.3103H222.774ZM89.0067 46.1603C89.1387 46.1603 89.2557 46.2113 89.3577 46.3133L90.3117 47.3483C89.7837 48.0023 89.1327 48.5033 88.3587 48.8513C87.5907 49.1993 86.6667 49.3733 85.5867 49.3733C84.6207 49.3733 83.7507 49.2083 82.9767 48.8783C82.2087 48.5483 81.5517 48.0893 81.0057 47.5013C80.4597 46.9133 80.0397 46.2113 79.7457 45.3953C79.4577 44.5793 79.3137 43.6883 79.3137 42.7223C79.3137 41.7443 79.4697 40.8503 79.7817 40.0403C80.0937 39.2243 80.5317 38.5223 81.0957 37.9343C81.6657 37.3463 82.3437 36.8903 83.1297 36.5663C83.9157 36.2363 84.7857 36.0713 85.7397 36.0713C86.6877 36.0713 87.5277 36.2273 88.2597 36.5393C88.9977 36.8513 89.6247 37.2593 90.1407 37.7633L89.3307 38.8883C89.2827 38.9603 89.2197 39.0233 89.1417 39.0773C89.0697 39.1313 88.9677 39.1583 88.8357 39.1583C88.7457 39.1583 88.6527 39.1343 88.5567 39.0863C88.4607 39.0323 88.3557 38.9693 88.2417 38.8973C88.1277 38.8193 87.9957 38.7353 87.8457 38.6453C87.6957 38.5553 87.5217 38.4743 87.3237 38.4023C87.1257 38.3243 86.8947 38.2613 86.6307 38.2133C86.3727 38.1593 86.0727 38.1323 85.7307 38.1323C85.1487 38.1323 84.6147 38.2373 84.1287 38.4473C83.6487 38.6513 83.2347 38.9513 82.8867 39.3473C82.5387 39.7373 82.2687 40.2173 82.0767 40.7873C81.8847 41.3513 81.7887 41.9963 81.7887 42.7223C81.7887 43.4543 81.8907 44.1053 82.0947 44.6753C82.3047 45.2453 82.5867 45.7253 82.9407 46.1153C83.2947 46.5053 83.7117 46.8053 84.1917 47.0153C84.6717 47.2193 85.1877 47.3213 85.7397 47.3213C86.0697 47.3213 86.3667 47.3033 86.6307 47.2673C86.9007 47.2313 87.1467 47.1743 87.3687 47.0963C87.5967 47.0183 87.8097 46.9193 88.0077 46.7993C88.2117 46.6733 88.4127 46.5203 88.6107 46.3403C88.6707 46.2863 88.7337 46.2443 88.7997 46.2143C88.8657 46.1783 88.9347 46.1603 89.0067 46.1603ZM94.4091 35.8553V49.2293H92.1861V35.8553H94.4091ZM99.4679 39.9953V49.2293H97.2359V39.9953H99.4679ZM99.7739 37.3043C99.7739 37.4963 99.7349 37.6763 99.6569 37.8443C99.5789 38.0123 99.4739 38.1593 99.3419 38.2853C99.2159 38.4113 99.0659 38.5133 98.8919 38.5913C98.7179 38.6633 98.5319 38.6993 98.3339 38.6993C98.1419 38.6993 97.9589 38.6633 97.7849 38.5913C97.6169 38.5133 97.4699 38.4113 97.3439 38.2853C97.2179 38.1593 97.1159 38.0123 97.0379 37.8443C96.9659 37.6763 96.9299 37.4963 96.9299 37.3043C96.9299 37.1063 96.9659 36.9203 97.0379 36.7463C97.1159 36.5723 97.2179 36.4223 97.3439 36.2963C97.4699 36.1703 97.6169 36.0713 97.7849 35.9993C97.9589 35.9213 98.1419 35.8823 98.3339 35.8823C98.5319 35.8823 98.7179 35.9213 98.8919 35.9993C99.0659 36.0713 99.2159 36.1703 99.3419 36.2963C99.4739 36.4223 99.5789 36.5723 99.6569 36.7463C99.7349 36.9203 99.7739 37.1063 99.7739 37.3043ZM108.889 41.9483C108.823 42.0323 108.757 42.0983 108.691 42.1463C108.631 42.1943 108.541 42.2183 108.421 42.2183C108.307 42.2183 108.196 42.1853 108.088 42.1193C107.98 42.0473 107.851 41.9693 107.701 41.8853C107.551 41.7953 107.371 41.7173 107.161 41.6513C106.957 41.5793 106.702 41.5433 106.396 41.5433C106.006 41.5433 105.664 41.6153 105.37 41.7593C105.076 41.8973 104.83 42.0983 104.632 42.3623C104.44 42.6263 104.296 42.9473 104.2 43.3253C104.104 43.6973 104.056 44.1203 104.056 44.5943C104.056 45.0863 104.107 45.5243 104.209 45.9083C104.317 46.2923 104.47 46.6163 104.668 46.8803C104.866 47.1383 105.106 47.3363 105.388 47.4743C105.67 47.6063 105.988 47.6723 106.342 47.6723C106.696 47.6723 106.981 47.6303 107.197 47.5463C107.419 47.4563 107.605 47.3603 107.755 47.2583C107.905 47.1503 108.034 47.0543 108.142 46.9703C108.256 46.8803 108.382 46.8353 108.52 46.8353C108.7 46.8353 108.835 46.9043 108.925 47.0423L109.564 47.8523C109.318 48.1403 109.051 48.3833 108.763 48.5813C108.475 48.7733 108.175 48.9293 107.863 49.0493C107.557 49.1633 107.239 49.2443 106.909 49.2923C106.585 49.3403 106.261 49.3643 105.937 49.3643C105.367 49.3643 104.83 49.2593 104.326 49.0493C103.822 48.8333 103.381 48.5213 103.003 48.1133C102.625 47.7053 102.325 47.2073 102.103 46.6193C101.887 46.0253 101.779 45.3503 101.779 44.5943C101.779 43.9163 101.875 43.2893 102.067 42.7133C102.265 42.1313 102.553 41.6303 102.931 41.2103C103.309 40.7843 103.777 40.4513 104.335 40.2113C104.893 39.9713 105.535 39.8513 106.261 39.8513C106.951 39.8513 107.554 39.9623 108.07 40.1843C108.592 40.4063 109.06 40.7243 109.474 41.1383L108.889 41.9483ZM113.721 35.8553V43.5143H114.135C114.285 43.5143 114.402 43.4963 114.486 43.4603C114.576 43.4183 114.666 43.3373 114.756 43.2173L117.051 40.3823C117.147 40.2563 117.252 40.1603 117.366 40.0943C117.486 40.0283 117.639 39.9953 117.825 39.9953H119.859L116.988 43.4243C116.784 43.6943 116.562 43.9013 116.322 44.0453C116.448 44.1353 116.559 44.2403 116.655 44.3603C116.757 44.4803 116.853 44.6093 116.943 44.7473L120.021 49.2293H118.014C117.84 49.2293 117.69 49.2023 117.564 49.1483C117.438 49.0883 117.333 48.9833 117.249 48.8333L114.891 45.3323C114.807 45.1943 114.72 45.1043 114.63 45.0623C114.54 45.0203 114.405 44.9993 114.225 44.9993H113.721V49.2293H111.498V35.8553H113.721ZM135.466 38.2043H131.542V49.2293H129.121V38.2043H125.197V36.2153H135.466V38.2043ZM139.423 40.9853C139.783 40.6493 140.179 40.3763 140.611 40.1663C141.043 39.9563 141.55 39.8513 142.132 39.8513C142.636 39.8513 143.083 39.9383 143.473 40.1123C143.863 40.2803 144.187 40.5203 144.445 40.8323C144.709 41.1383 144.907 41.5073 145.039 41.9393C145.177 42.3653 145.246 42.8363 145.246 43.3523V49.2293H143.023V43.3523C143.023 42.7883 142.894 42.3533 142.636 42.0473C142.378 41.7353 141.985 41.5793 141.457 41.5793C141.073 41.5793 140.713 41.6663 140.377 41.8403C140.041 42.0143 139.723 42.2513 139.423 42.5513V49.2293H137.2V35.8553H139.423V40.9853ZM149.997 41.5973C150.285 41.0453 150.627 40.6133 151.023 40.3013C151.419 39.9833 151.887 39.8243 152.427 39.8243C152.853 39.8243 153.195 39.9173 153.453 40.1033L153.309 41.7683C153.279 41.8763 153.234 41.9543 153.174 42.0023C153.12 42.0443 153.045 42.0653 152.949 42.0653C152.859 42.0653 152.724 42.0503 152.544 42.0203C152.37 41.9903 152.199 41.9753 152.031 41.9753C151.785 41.9753 151.566 42.0113 151.374 42.0833C151.182 42.1553 151.008 42.2603 150.852 42.3983C150.702 42.5303 150.567 42.6923 150.447 42.8843C150.333 43.0763 150.225 43.2953 150.123 43.5413V49.2293H147.9V39.9953H149.205C149.433 39.9953 149.592 40.0373 149.682 40.1213C149.772 40.1993 149.832 40.3433 149.862 40.5533L149.997 41.5973ZM158.977 39.8513C159.661 39.8513 160.282 39.9623 160.84 40.1843C161.404 40.4063 161.884 40.7213 162.28 41.1293C162.682 41.5373 162.991 42.0353 163.207 42.6233C163.423 43.2113 163.531 43.8683 163.531 44.5943C163.531 45.3263 163.423 45.9863 163.207 46.5743C162.991 47.1623 162.682 47.6633 162.28 48.0773C161.884 48.4913 161.404 48.8093 160.84 49.0313C160.282 49.2533 159.661 49.3643 158.977 49.3643C158.287 49.3643 157.66 49.2533 157.096 49.0313C156.532 48.8093 156.049 48.4913 155.647 48.0773C155.251 47.6633 154.942 47.1623 154.72 46.5743C154.504 45.9863 154.396 45.3263 154.396 44.5943C154.396 43.8683 154.504 43.2113 154.72 42.6233C154.942 42.0353 155.251 41.5373 155.647 41.1293C156.049 40.7213 156.532 40.4063 157.096 40.1843C157.66 39.9623 158.287 39.8513 158.977 39.8513ZM158.977 47.6543C159.745 47.6543 160.312 47.3963 160.678 46.8803C161.05 46.3643 161.236 45.6083 161.236 44.6123C161.236 43.6163 161.05 42.8573 160.678 42.3353C160.312 41.8133 159.745 41.5523 158.977 41.5523C158.197 41.5523 157.618 41.8163 157.24 42.3443C156.868 42.8663 156.682 43.6223 156.682 44.6123C156.682 45.6023 156.868 46.3583 157.24 46.8803C157.618 47.3963 158.197 47.6543 158.977 47.6543ZM173.723 39.9953V49.2293H172.364C172.07 49.2293 171.884 49.0943 171.806 48.8243L171.653 48.0863C171.275 48.4703 170.858 48.7823 170.402 49.0223C169.946 49.2563 169.409 49.3733 168.791 49.3733C168.287 49.3733 167.84 49.2893 167.45 49.1213C167.066 48.9473 166.742 48.7043 166.478 48.3923C166.214 48.0803 166.013 47.7113 165.875 47.2853C165.743 46.8533 165.677 46.3793 165.677 45.8633V39.9953H167.9V45.8633C167.9 46.4273 168.029 46.8653 168.287 47.1773C168.551 47.4833 168.944 47.6363 169.466 47.6363C169.85 47.6363 170.21 47.5523 170.546 47.3843C170.882 47.2103 171.2 46.9733 171.5 46.6733V39.9953H173.723ZM179.842 44.3873C180.118 44.3873 180.358 44.3513 180.562 44.2793C180.766 44.2013 180.934 44.0963 181.066 43.9643C181.204 43.8323 181.306 43.6733 181.372 43.4873C181.444 43.3013 181.48 43.0973 181.48 42.8753C181.48 42.4193 181.342 42.0593 181.066 41.7953C180.796 41.5253 180.388 41.3903 179.842 41.3903C179.296 41.3903 178.885 41.5253 178.609 41.7953C178.339 42.0593 178.204 42.4193 178.204 42.8753C178.204 43.0913 178.237 43.2923 178.303 43.4783C178.375 43.6643 178.477 43.8263 178.609 43.9643C178.747 44.0963 178.918 44.2013 179.122 44.2793C179.332 44.3513 179.572 44.3873 179.842 44.3873ZM182.353 49.6433C182.353 49.4633 182.299 49.3163 182.191 49.2023C182.083 49.0883 181.936 49.0013 181.75 48.9413C181.564 48.8753 181.345 48.8273 181.093 48.7973C180.847 48.7673 180.583 48.7463 180.301 48.7343C180.025 48.7163 179.737 48.7013 179.437 48.6893C179.143 48.6773 178.855 48.6533 178.573 48.6173C178.327 48.7553 178.126 48.9173 177.97 49.1033C177.82 49.2893 177.745 49.5053 177.745 49.7513C177.745 49.9133 177.784 50.0633 177.862 50.2013C177.946 50.3453 178.075 50.4683 178.249 50.5703C178.429 50.6723 178.66 50.7503 178.942 50.8043C179.224 50.8643 179.569 50.8943 179.977 50.8943C180.391 50.8943 180.748 50.8613 181.048 50.7953C181.348 50.7353 181.594 50.6483 181.786 50.5343C181.984 50.4263 182.128 50.2943 182.218 50.1383C182.308 49.9883 182.353 49.8233 182.353 49.6433ZM184.567 40.3103V41.1383C184.567 41.4023 184.408 41.5643 184.09 41.6243L183.262 41.7773C183.388 42.0953 183.451 42.4433 183.451 42.8213C183.451 43.2773 183.358 43.6913 183.172 44.0633C182.992 44.4293 182.74 44.7413 182.416 44.9993C182.092 45.2573 181.708 45.4583 181.264 45.6023C180.826 45.7403 180.352 45.8093 179.842 45.8093C179.662 45.8093 179.488 45.8003 179.32 45.7823C179.152 45.7643 178.987 45.7403 178.825 45.7103C178.537 45.8843 178.393 46.0793 178.393 46.2953C178.393 46.4813 178.477 46.6193 178.645 46.7093C178.819 46.7933 179.047 46.8533 179.329 46.8893C179.611 46.9253 179.932 46.9493 180.292 46.9613C180.652 46.9673 181.021 46.9853 181.399 47.0153C181.777 47.0453 182.146 47.0993 182.506 47.1773C182.866 47.2493 183.187 47.3663 183.469 47.5283C183.751 47.6903 183.976 47.9123 184.144 48.1943C184.318 48.4703 184.405 48.8273 184.405 49.2653C184.405 49.6733 184.303 50.0693 184.099 50.4533C183.901 50.8373 183.61 51.1793 183.226 51.4793C182.848 51.7793 182.38 52.0193 181.822 52.1993C181.27 52.3853 180.64 52.4783 179.932 52.4783C179.236 52.4783 178.63 52.4093 178.114 52.2713C177.598 52.1393 177.169 51.9593 176.827 51.7313C176.485 51.5093 176.23 51.2513 176.062 50.9573C175.894 50.6633 175.81 50.3573 175.81 50.0393C175.81 49.6073 175.939 49.2473 176.197 48.9593C176.461 48.6653 176.821 48.4313 177.277 48.2573C177.031 48.1313 176.836 47.9633 176.692 47.7533C176.548 47.5433 176.476 47.2673 176.476 46.9253C176.476 46.7873 176.5 46.6463 176.548 46.5023C176.602 46.3523 176.677 46.2053 176.773 46.0613C176.875 45.9173 177.001 45.7823 177.151 45.6563C177.301 45.5243 177.478 45.4073 177.682 45.3053C177.214 45.0533 176.845 44.7173 176.575 44.2973C176.311 43.8773 176.179 43.3853 176.179 42.8213C176.179 42.3653 176.269 41.9543 176.449 41.5883C176.635 41.2163 176.89 40.9013 177.214 40.6433C177.544 40.3793 177.931 40.1783 178.375 40.0403C178.825 39.9023 179.314 39.8333 179.842 39.8333C180.238 39.8333 180.61 39.8753 180.958 39.9593C181.306 40.0373 181.624 40.1543 181.912 40.3103H184.567ZM188.74 40.9853C189.1 40.6493 189.496 40.3763 189.928 40.1663C190.36 39.9563 190.867 39.8513 191.449 39.8513C191.953 39.8513 192.4 39.9383 192.79 40.1123C193.18 40.2803 193.504 40.5203 193.762 40.8323C194.026 41.1383 194.224 41.5073 194.356 41.9393C194.494 42.3653 194.563 42.8363 194.563 43.3523V49.2293H192.34V43.3523C192.34 42.7883 192.211 42.3533 191.953 42.0473C191.695 41.7353 191.302 41.5793 190.774 41.5793C190.39 41.5793 190.03 41.6663 189.694 41.8403C189.358 42.0143 189.04 42.2513 188.74 42.5513V49.2293H186.517V35.8553H188.74V40.9853ZM206.418 42.4073C206.874 42.4073 207.27 42.3503 207.606 42.2363C207.948 42.1223 208.227 41.9663 208.443 41.7683C208.665 41.5643 208.83 41.3243 208.938 41.0483C209.046 40.7723 209.1 40.4693 209.1 40.1393C209.1 39.4793 208.881 38.9723 208.443 38.6183C208.011 38.2643 207.348 38.0873 206.454 38.0873H204.906V42.4073H206.418ZM212.646 49.2293H210.459C210.045 49.2293 209.745 49.0673 209.559 48.7433L206.823 44.5763C206.721 44.4203 206.607 44.3093 206.481 44.2433C206.361 44.1773 206.181 44.1443 205.941 44.1443H204.906V49.2293H202.485V36.2153H206.454C207.336 36.2153 208.092 36.3083 208.722 36.4943C209.358 36.6743 209.877 36.9293 210.279 37.2593C210.687 37.5893 210.987 37.9853 211.179 38.4473C211.371 38.9033 211.467 39.4073 211.467 39.9593C211.467 40.3973 211.401 40.8113 211.269 41.2013C211.143 41.5913 210.957 41.9453 210.711 42.2633C210.471 42.5813 210.171 42.8603 209.811 43.1003C209.457 43.3403 209.052 43.5293 208.596 43.6673C208.752 43.7573 208.896 43.8653 209.028 43.9913C209.16 44.1113 209.28 44.2553 209.388 44.4233L212.646 49.2293ZM218.978 45.2873C218.336 45.3173 217.796 45.3743 217.358 45.4583C216.92 45.5363 216.569 45.6383 216.305 45.7643C216.041 45.8903 215.852 46.0373 215.738 46.2053C215.624 46.3733 215.567 46.5563 215.567 46.7543C215.567 47.1443 215.681 47.4233 215.909 47.5913C216.143 47.7593 216.446 47.8433 216.818 47.8433C217.274 47.8433 217.667 47.7623 217.997 47.6003C218.333 47.4323 218.66 47.1803 218.978 46.8443V45.2873ZM213.884 41.2823C214.946 40.3103 216.224 39.8243 217.718 39.8243C218.258 39.8243 218.741 39.9143 219.167 40.0943C219.593 40.2683 219.953 40.5143 220.247 40.8323C220.541 41.1443 220.763 41.5193 220.913 41.9573C221.069 42.3953 221.147 42.8753 221.147 43.3973V49.2293H220.139C219.929 49.2293 219.767 49.1993 219.653 49.1393C219.539 49.0733 219.449 48.9443 219.383 48.7523L219.185 48.0863C218.951 48.2963 218.723 48.4823 218.501 48.6443C218.279 48.8003 218.048 48.9323 217.808 49.0403C217.568 49.1483 217.31 49.2293 217.034 49.2833C216.764 49.3433 216.464 49.3733 216.134 49.3733C215.744 49.3733 215.384 49.3223 215.054 49.2203C214.724 49.1123 214.439 48.9533 214.199 48.7433C213.959 48.5333 213.773 48.2723 213.641 47.9603C213.509 47.6483 213.443 47.2853 213.443 46.8713C213.443 46.6373 213.482 46.4063 213.56 46.1783C213.638 45.9443 213.764 45.7223 213.938 45.5123C214.118 45.3023 214.349 45.1043 214.631 44.9183C214.913 44.7323 215.258 44.5703 215.666 44.4323C216.08 44.2943 216.56 44.1833 217.106 44.0993C217.652 44.0093 218.276 43.9553 218.978 43.9373V43.3973C218.978 42.7793 218.846 42.3233 218.582 42.0293C218.318 41.7293 217.937 41.5793 217.439 41.5793C217.079 41.5793 216.779 41.6213 216.539 41.7053C216.305 41.7893 216.098 41.8853 215.918 41.9933C215.738 42.0953 215.573 42.1883 215.423 42.2723C215.279 42.3563 215.117 42.3983 214.937 42.3983C214.781 42.3983 214.649 42.3593 214.541 42.2813C214.433 42.1973 214.346 42.1013 214.28 41.9933L213.884 41.2823ZM226.736 49.3733C225.932 49.3733 225.314 49.1483 224.882 48.6983C224.456 48.2423 224.243 47.6153 224.243 46.8173V41.6603H223.298C223.178 41.6603 223.076 41.6213 222.992 41.5433C222.908 41.4653 222.866 41.3483 222.866 41.1923V40.3103L224.351 40.0673L224.819 37.5473C224.849 37.4273 224.906 37.3343 224.99 37.2683C225.074 37.2023 225.182 37.1693 225.314 37.1693H226.466V40.0763H228.932V41.6603H226.466V46.6643C226.466 46.9523 226.535 47.1773 226.673 47.3393C226.817 47.5013 227.012 47.5823 227.258 47.5823C227.396 47.5823 227.51 47.5673 227.6 47.5373C227.696 47.5013 227.777 47.4653 227.843 47.4293C227.915 47.3933 227.978 47.3603 228.032 47.3303C228.086 47.2943 228.14 47.2763 228.194 47.2763C228.26 47.2763 228.314 47.2943 228.356 47.3303C228.398 47.3603 228.443 47.4083 228.491 47.4743L229.157 48.5543C228.833 48.8243 228.461 49.0283 228.041 49.1663C227.621 49.3043 227.186 49.3733 226.736 49.3733ZM236.773 43.5503C236.773 43.2623 236.731 42.9923 236.647 42.7403C236.569 42.4823 236.449 42.2573 236.287 42.0653C236.125 41.8733 235.918 41.7233 235.666 41.6153C235.42 41.5013 235.132 41.4443 234.802 41.4443C234.16 41.4443 233.653 41.6273 233.281 41.9933C232.915 42.3593 232.681 42.8783 232.579 43.5503H236.773ZM232.534 44.8913C232.57 45.3653 232.654 45.7763 232.786 46.1243C232.918 46.4663 233.092 46.7513 233.308 46.9793C233.524 47.2013 233.779 47.3693 234.073 47.4833C234.373 47.5913 234.703 47.6453 235.063 47.6453C235.423 47.6453 235.732 47.6033 235.99 47.5193C236.254 47.4353 236.482 47.3423 236.674 47.2403C236.872 47.1383 237.043 47.0453 237.187 46.9613C237.337 46.8773 237.481 46.8353 237.619 46.8353C237.805 46.8353 237.943 46.9043 238.033 47.0423L238.672 47.8523C238.426 48.1403 238.15 48.3833 237.844 48.5813C237.538 48.7733 237.217 48.9293 236.881 49.0493C236.551 49.1633 236.212 49.2443 235.864 49.2923C235.522 49.3403 235.189 49.3643 234.865 49.3643C234.223 49.3643 233.626 49.2593 233.074 49.0493C232.522 48.8333 232.042 48.5183 231.634 48.1043C231.226 47.6843 230.905 47.1683 230.671 46.5563C230.437 45.9383 230.32 45.2243 230.32 44.4143C230.32 43.7843 230.422 43.1933 230.626 42.6413C230.83 42.0833 231.121 41.6003 231.499 41.1923C231.883 40.7783 232.348 40.4513 232.894 40.2113C233.446 39.9713 234.067 39.8513 234.757 39.8513C235.339 39.8513 235.876 39.9443 236.368 40.1303C236.86 40.3163 237.283 40.5893 237.637 40.9493C237.991 41.3033 238.267 41.7413 238.465 42.2633C238.669 42.7793 238.771 43.3703 238.771 44.0363C238.771 44.3723 238.735 44.6003 238.663 44.7203C238.591 44.8343 238.453 44.8913 238.249 44.8913H232.534Z" fill="white"/>
<g filter="url(#filter0_d_303_192)">
<path d="M60.0044 140.723C66.52 118.1 80.5895 98.3913 99.8695 84.8799L123.514 118.62C111.946 126.726 103.504 138.552 99.5951 152.126L60.0044 140.723Z" fill="#2CDDC7"/>
</g>
<g filter="url(#filter1_d_303_192)">
<path d="M77.9381 232.798C67.8385 219.922 60.9521 204.825 57.8495 188.758C54.7468 172.691 55.5172 156.115 60.0967 140.405L99.6505 151.934C96.9028 161.361 96.4406 171.306 98.3022 180.947C100.164 190.587 104.296 199.645 110.355 207.371L77.9381 232.798Z" fill="#59A7FF"/>
</g>
<g filter="url(#filter2_d_303_192)">
<path d="M204.91 261.422C183.586 272.045 159.239 274.948 136.016 269.636C112.792 264.324 92.1274 251.126 77.5417 232.29L110.118 207.065C118.869 218.367 131.268 226.286 145.202 229.473C159.136 232.661 173.744 230.919 186.539 224.545L204.91 261.422Z" fill="#6A7BFF"/>
</g>
<path d="M204.274 261.736C225.043 251.568 241.786 234.705 251.807 213.865C261.829 193.024 264.545 169.417 259.519 146.845C254.494 124.273 242.019 104.048 224.102 89.4277C206.185 74.8072 183.87 66.6412 160.748 66.2444L160.042 107.438C173.914 107.676 187.304 112.576 198.054 121.348C208.804 130.121 216.289 142.255 219.304 155.799C222.32 169.342 220.69 183.506 214.677 196.01C208.664 208.515 198.618 218.632 186.157 224.734L204.274 261.736Z" fill="#8F6AFF"/>
<path d="M99.5747 85.0873C117.504 72.429 139.007 65.8286 160.95 66.2481L160.162 107.441C146.997 107.189 134.095 111.149 123.337 118.744L99.5747 85.0873Z" fill="#4CFFC9"/>
<circle cx="63.5876" cy="297.458" r="4" fill="#8F6AFF"/>
<path d="M78.2086 300.639V301.458H73.9406V300.639H75.6126V295.463C75.6126 295.298 75.6181 295.128 75.6291 294.952L74.2871 296.09C74.2358 296.131 74.1845 296.156 74.1331 296.167C74.0818 296.178 74.0323 296.18 73.9846 296.173C73.9406 296.166 73.9003 296.151 73.8636 296.129C73.8306 296.103 73.8031 296.078 73.7811 296.052L73.4456 295.584L75.8106 293.544H76.6851V300.639H78.2086ZM83.3465 296.833C83.3172 296.881 83.286 296.915 83.253 296.937C83.22 296.956 83.1778 296.965 83.1265 296.965C83.0678 296.965 83.0018 296.945 82.9285 296.904C82.8588 296.864 82.7727 296.82 82.67 296.772C82.571 296.725 82.4537 296.681 82.318 296.64C82.1823 296.6 82.021 296.58 81.834 296.58C81.68 296.58 81.5388 296.6 81.4105 296.64C81.2858 296.677 81.1795 296.73 81.0915 296.8C81.0035 296.866 80.9357 296.947 80.888 297.042C80.8403 297.134 80.8165 297.233 80.8165 297.339C80.8165 297.478 80.8568 297.594 80.9375 297.685C81.0218 297.777 81.13 297.856 81.262 297.922C81.3977 297.988 81.5498 298.048 81.7185 298.103C81.8908 298.155 82.065 298.21 82.241 298.268C82.4207 298.327 82.5948 298.395 82.7635 298.472C82.9358 298.545 83.088 298.639 83.22 298.752C83.3557 298.862 83.4638 298.996 83.5445 299.154C83.6288 299.312 83.671 299.504 83.671 299.731C83.671 299.992 83.6233 300.234 83.528 300.457C83.4363 300.677 83.2988 300.868 83.1155 301.029C82.9358 301.191 82.7122 301.317 82.4445 301.409C82.1768 301.501 81.8707 301.546 81.526 301.546C81.141 301.546 80.7853 301.482 80.459 301.354C80.1327 301.226 79.8595 301.062 79.6395 300.864L79.8925 300.452C79.9218 300.401 79.9585 300.362 80.0025 300.336C80.0465 300.307 80.1052 300.292 80.1785 300.292C80.2482 300.292 80.3197 300.318 80.393 300.369C80.4663 300.421 80.5543 300.478 80.657 300.54C80.7597 300.599 80.8843 300.654 81.031 300.705C81.1777 300.753 81.361 300.776 81.581 300.776C81.7643 300.776 81.9238 300.754 82.0595 300.71C82.1952 300.663 82.307 300.6 82.395 300.523C82.4867 300.443 82.5545 300.351 82.5985 300.248C82.6425 300.146 82.6645 300.038 82.6645 299.924C82.6645 299.777 82.6223 299.656 82.538 299.561C82.4573 299.462 82.3492 299.378 82.2135 299.308C82.0815 299.238 81.9293 299.178 81.757 299.126C81.5847 299.075 81.4087 299.02 81.229 298.961C81.0493 298.903 80.8733 298.835 80.701 298.758C80.5287 298.681 80.3747 298.584 80.239 298.466C80.107 298.349 79.9988 298.206 79.9145 298.037C79.8338 297.869 79.7935 297.663 79.7935 297.421C79.7935 297.205 79.8375 296.998 79.9255 296.8C80.0172 296.602 80.1473 296.428 80.316 296.277C80.4883 296.127 80.6992 296.008 80.9485 295.92C81.2015 295.828 81.4893 295.782 81.812 295.782C82.1823 295.782 82.516 295.841 82.813 295.958C83.1137 296.076 83.3703 296.237 83.583 296.442L83.3465 296.833ZM86.9113 301.546C86.4603 301.546 86.1119 301.42 85.8663 301.167C85.6243 300.914 85.5033 300.553 85.5033 300.083V296.739H84.8543C84.7919 296.739 84.7388 296.721 84.6948 296.684C84.6544 296.644 84.6343 296.585 84.6343 296.508V296.074L85.5418 295.947L85.7838 294.281C85.7984 294.219 85.8259 294.171 85.8663 294.138C85.9103 294.101 85.9653 294.083 86.0313 294.083H86.5758V295.958H88.1598V296.739H86.5758V300.012C86.5758 300.232 86.6289 300.397 86.7353 300.507C86.8453 300.613 86.9846 300.666 87.1533 300.666C87.2523 300.666 87.3366 300.654 87.4063 300.628C87.4796 300.602 87.5419 300.575 87.5933 300.545C87.6446 300.512 87.6886 300.483 87.7253 300.457C87.7619 300.432 87.7949 300.419 87.8243 300.419C87.8609 300.419 87.8884 300.428 87.9068 300.446C87.9288 300.461 87.9508 300.487 87.9728 300.523L88.2918 301.04C88.1158 301.202 87.9068 301.326 87.6648 301.414C87.4228 301.502 87.1716 301.546 86.9113 301.546Z" fill="#849AA9"/>
<circle cx="105.588" cy="297.458" r="4" fill="#6A7BFF"/>
<path d="M120.011 300.441C120.128 300.441 120.22 300.476 120.286 300.545C120.352 300.611 120.385 300.699 120.385 300.809V301.458H115.083V301.09C115.083 301.017 115.097 300.94 115.127 300.859C115.156 300.775 115.205 300.699 115.275 300.633L117.772 298.131C117.981 297.922 118.17 297.72 118.339 297.526C118.507 297.332 118.65 297.139 118.768 296.948C118.885 296.754 118.975 296.556 119.037 296.354C119.103 296.153 119.136 295.94 119.136 295.716C119.136 295.496 119.101 295.304 119.032 295.139C118.962 294.97 118.867 294.831 118.746 294.721C118.625 294.611 118.482 294.528 118.317 294.473C118.152 294.418 117.974 294.391 117.783 294.391C117.592 294.391 117.416 294.418 117.255 294.473C117.097 294.528 116.956 294.605 116.832 294.704C116.707 294.803 116.602 294.921 116.518 295.056C116.434 295.192 116.373 295.339 116.337 295.496C116.285 295.636 116.219 295.729 116.139 295.777C116.062 295.825 115.948 295.836 115.798 295.81L115.237 295.711C115.288 295.344 115.389 295.022 115.539 294.743C115.689 294.464 115.878 294.231 116.106 294.044C116.333 293.854 116.593 293.711 116.887 293.615C117.184 293.52 117.503 293.472 117.844 293.472C118.188 293.472 118.505 293.524 118.795 293.626C119.088 293.725 119.341 293.87 119.554 294.061C119.767 294.252 119.934 294.484 120.055 294.759C120.176 295.031 120.236 295.339 120.236 295.683C120.236 295.977 120.192 296.25 120.104 296.503C120.02 296.752 119.902 296.991 119.752 297.218C119.605 297.445 119.433 297.667 119.235 297.883C119.041 298.096 118.834 298.312 118.614 298.532L116.612 300.578C116.766 300.538 116.92 300.505 117.074 300.479C117.231 300.454 117.38 300.441 117.519 300.441H120.011ZM123.059 296.646C123.18 296.518 123.306 296.4 123.438 296.294C123.57 296.188 123.709 296.098 123.856 296.024C124.006 295.947 124.166 295.889 124.335 295.848C124.507 295.804 124.69 295.782 124.885 295.782C125.193 295.782 125.462 295.834 125.693 295.936C125.928 296.039 126.124 296.184 126.282 296.371C126.439 296.554 126.558 296.776 126.639 297.036C126.72 297.297 126.76 297.585 126.76 297.9V301.458H125.682V297.9C125.682 297.5 125.59 297.19 125.407 296.97C125.224 296.747 124.943 296.635 124.566 296.635C124.291 296.635 124.032 296.701 123.79 296.833C123.552 296.961 123.33 297.137 123.125 297.361V301.458H122.052V295.87H122.696C122.846 295.87 122.939 295.942 122.976 296.085L123.059 296.646ZM132.14 297.223C131.964 296.992 131.773 296.831 131.568 296.739C131.366 296.648 131.139 296.602 130.886 296.602C130.394 296.602 130.013 296.78 129.742 297.135C129.474 297.487 129.34 298.003 129.34 298.681C129.34 299.037 129.37 299.341 129.428 299.594C129.491 299.843 129.579 300.049 129.692 300.21C129.81 300.368 129.953 300.485 130.121 300.562C130.29 300.635 130.481 300.672 130.693 300.672C131.005 300.672 131.274 300.602 131.502 300.463C131.729 300.324 131.942 300.127 132.14 299.874V297.223ZM133.218 293.34V301.458H132.569C132.418 301.458 132.325 301.387 132.288 301.244L132.195 300.6C131.956 300.883 131.685 301.11 131.381 301.282C131.08 301.451 130.732 301.535 130.336 301.535C130.017 301.535 129.727 301.473 129.467 301.348C129.21 301.224 128.99 301.042 128.807 300.804C128.623 300.562 128.482 300.263 128.383 299.907C128.284 299.552 128.235 299.143 128.235 298.681C128.235 298.267 128.29 297.882 128.4 297.526C128.51 297.17 128.669 296.862 128.878 296.602C129.087 296.342 129.34 296.138 129.637 295.991C129.934 295.841 130.27 295.766 130.644 295.766C130.981 295.766 131.267 295.821 131.502 295.931C131.74 296.041 131.953 296.197 132.14 296.398V293.34H133.218Z" fill="#849AA9"/>
<circle cx="147.588" cy="297.458" r="4" fill="#59A7FF"/>
<path d="M157.27 295.711C157.325 295.344 157.427 295.022 157.578 294.743C157.728 294.464 157.917 294.231 158.144 294.044C158.371 293.854 158.632 293.711 158.925 293.615C159.222 293.52 159.541 293.472 159.882 293.472C160.223 293.472 160.537 293.522 160.823 293.621C161.109 293.716 161.352 293.854 161.554 294.033C161.759 294.209 161.919 294.422 162.033 294.671C162.146 294.921 162.203 295.196 162.203 295.496C162.203 295.749 162.172 295.973 162.11 296.167C162.047 296.362 161.957 296.532 161.84 296.679C161.726 296.826 161.587 296.95 161.422 297.053C161.257 297.152 161.072 297.234 160.867 297.3C161.369 297.44 161.747 297.667 162 297.982C162.253 298.294 162.379 298.69 162.379 299.17C162.379 299.541 162.309 299.874 162.17 300.171C162.031 300.465 161.84 300.714 161.598 300.919C161.356 301.121 161.074 301.277 160.751 301.387C160.432 301.493 160.091 301.546 159.728 301.546C159.314 301.546 158.958 301.497 158.661 301.398C158.364 301.295 158.111 301.154 157.902 300.974C157.693 300.791 157.519 300.573 157.38 300.32C157.244 300.063 157.128 299.783 157.033 299.478L157.501 299.28C157.622 299.229 157.739 299.214 157.853 299.236C157.966 299.258 158.049 299.323 158.1 299.429C158.155 299.539 158.217 299.664 158.287 299.803C158.36 299.939 158.458 300.069 158.579 300.193C158.7 300.314 158.85 300.417 159.03 300.501C159.213 300.586 159.442 300.628 159.717 300.628C159.981 300.628 160.212 300.586 160.41 300.501C160.608 300.413 160.773 300.302 160.905 300.166C161.037 300.027 161.136 299.873 161.202 299.704C161.268 299.535 161.301 299.368 161.301 299.203C161.301 298.998 161.275 298.809 161.224 298.637C161.173 298.465 161.074 298.318 160.927 298.197C160.784 298.072 160.584 297.975 160.328 297.905C160.071 297.836 159.737 297.801 159.327 297.801V297.02C159.664 297.016 159.948 296.981 160.179 296.915C160.414 296.849 160.603 296.758 160.746 296.64C160.889 296.523 160.991 296.384 161.054 296.222C161.12 296.061 161.153 295.881 161.153 295.683C161.153 295.467 161.12 295.278 161.054 295.117C160.988 294.956 160.894 294.822 160.773 294.715C160.656 294.605 160.515 294.525 160.35 294.473C160.188 294.418 160.012 294.391 159.822 294.391C159.631 294.391 159.455 294.418 159.294 294.473C159.132 294.528 158.989 294.605 158.865 294.704C158.74 294.803 158.635 294.921 158.551 295.056C158.467 295.192 158.406 295.339 158.37 295.496C158.318 295.636 158.252 295.729 158.172 295.777C158.095 295.825 157.983 295.836 157.836 295.81L157.27 295.711ZM165.064 296.943C165.244 296.576 165.46 296.288 165.713 296.079C165.966 295.87 166.27 295.766 166.626 295.766C166.747 295.766 166.861 295.781 166.967 295.81C167.077 295.836 167.172 295.876 167.253 295.931L167.182 296.739C167.156 296.838 167.095 296.888 167 296.888C166.949 296.888 166.872 296.879 166.769 296.86C166.666 296.838 166.556 296.827 166.439 296.827C166.267 296.827 166.115 296.853 165.983 296.904C165.851 296.952 165.731 297.025 165.625 297.124C165.522 297.22 165.431 297.339 165.35 297.482C165.269 297.621 165.194 297.781 165.125 297.96V301.458H164.052V295.87H164.668C164.785 295.87 164.864 295.892 164.905 295.936C164.949 295.977 164.98 296.05 164.998 296.156L165.064 296.943ZM171.819 297.223C171.643 296.992 171.453 296.831 171.247 296.739C171.046 296.648 170.818 296.602 170.565 296.602C170.074 296.602 169.693 296.78 169.421 297.135C169.154 297.487 169.02 298.003 169.02 298.681C169.02 299.037 169.049 299.341 169.108 299.594C169.17 299.843 169.258 300.049 169.372 300.21C169.489 300.368 169.632 300.485 169.801 300.562C169.97 300.635 170.16 300.672 170.373 300.672C170.685 300.672 170.954 300.602 171.181 300.463C171.409 300.324 171.621 300.127 171.819 299.874V297.223ZM172.897 293.34V301.458H172.248C172.098 301.458 172.005 301.387 171.968 301.244L171.874 300.6C171.636 300.883 171.365 301.11 171.06 301.282C170.76 301.451 170.411 301.535 170.015 301.535C169.696 301.535 169.407 301.473 169.146 301.348C168.89 301.224 168.67 301.042 168.486 300.804C168.303 300.562 168.162 300.263 168.063 299.907C167.964 299.552 167.914 299.143 167.914 298.681C167.914 298.267 167.969 297.882 168.079 297.526C168.189 297.17 168.349 296.862 168.558 296.602C168.767 296.342 169.02 296.138 169.317 295.991C169.614 295.841 169.949 295.766 170.323 295.766C170.661 295.766 170.947 295.821 171.181 295.931C171.42 296.041 171.632 296.197 171.819 296.398V293.34H172.897Z" fill="#849AA9"/>
<circle cx="189.588" cy="297.458" r="4" fill="#2CDDC7"/>
<path d="M202.581 298.576V295.496C202.581 295.39 202.582 295.278 202.586 295.161C202.593 295.04 202.606 294.915 202.625 294.787L199.858 298.576H202.581ZM204.665 298.576V299.198C204.665 299.26 204.645 299.313 204.605 299.357C204.564 299.401 204.507 299.423 204.434 299.423H203.521V301.458H202.581V299.423H199.116C199.035 299.423 198.967 299.401 198.912 299.357C198.857 299.31 198.82 299.251 198.802 299.181L198.692 298.631L202.509 293.555H203.521V298.576H204.665ZM207.801 301.546C207.35 301.546 207.002 301.42 206.756 301.167C206.514 300.914 206.393 300.553 206.393 300.083V296.739H205.744C205.682 296.739 205.629 296.721 205.585 296.684C205.544 296.644 205.524 296.585 205.524 296.508V296.074L206.432 295.947L206.674 294.281C206.688 294.219 206.716 294.171 206.756 294.138C206.8 294.101 206.855 294.083 206.921 294.083H207.466V295.958H209.05V296.739H207.466V300.012C207.466 300.232 207.519 300.397 207.625 300.507C207.735 300.613 207.874 300.666 208.043 300.666C208.142 300.666 208.226 300.654 208.296 300.628C208.369 300.602 208.432 300.575 208.483 300.545C208.534 300.512 208.578 300.483 208.615 300.457C208.652 300.432 208.685 300.419 208.714 300.419C208.751 300.419 208.778 300.428 208.797 300.446C208.819 300.461 208.841 300.487 208.863 300.523L209.182 301.04C209.006 301.202 208.797 301.326 208.555 301.414C208.313 301.502 208.061 301.546 207.801 301.546ZM211.44 296.58C211.675 296.342 211.933 296.149 212.215 296.002C212.501 295.856 212.83 295.782 213.2 295.782C213.508 295.782 213.777 295.834 214.008 295.936C214.243 296.039 214.439 296.184 214.597 296.371C214.755 296.554 214.874 296.776 214.954 297.036C215.035 297.297 215.075 297.585 215.075 297.9V301.458H213.997V297.9C213.997 297.5 213.906 297.19 213.722 296.97C213.539 296.747 213.259 296.635 212.881 296.635C212.606 296.635 212.347 296.701 212.105 296.833C211.867 296.961 211.645 297.137 211.44 297.361V301.458H210.367V293.34H211.44V296.58Z" fill="#849AA9"/>
<circle cx="231.588" cy="297.458" r="4" fill="#4CFFC9"/>
<path d="M242.639 296.508C243.042 296.424 243.407 296.382 243.734 296.382C244.144 296.382 244.507 296.444 244.823 296.569C245.138 296.69 245.402 296.859 245.615 297.075C245.831 297.288 245.992 297.541 246.099 297.834C246.209 298.124 246.264 298.439 246.264 298.78C246.264 299.198 246.19 299.577 246.044 299.918C245.897 300.259 245.695 300.551 245.439 300.793C245.182 301.035 244.878 301.222 244.526 301.354C244.177 301.482 243.801 301.546 243.398 301.546C243.16 301.546 242.932 301.523 242.716 301.475C242.503 301.427 242.304 301.365 242.117 301.288C241.93 301.207 241.755 301.116 241.594 301.013C241.436 300.91 241.295 300.802 241.171 300.688L241.501 300.226C241.57 300.124 241.664 300.072 241.781 300.072C241.858 300.072 241.942 300.102 242.034 300.16C242.129 300.215 242.241 300.278 242.37 300.347C242.498 300.417 242.65 300.481 242.826 300.54C243.002 300.595 243.211 300.622 243.453 300.622C243.721 300.622 243.961 300.58 244.174 300.496C244.39 300.408 244.571 300.285 244.718 300.127C244.868 299.97 244.982 299.781 245.059 299.561C245.14 299.341 245.18 299.097 245.18 298.829C245.18 298.591 245.145 298.377 245.076 298.186C245.006 297.995 244.901 297.832 244.762 297.696C244.623 297.561 244.449 297.458 244.24 297.388C244.031 297.315 243.787 297.278 243.508 297.278C243.119 297.278 242.705 297.348 242.265 297.487L241.589 297.289L242.232 293.56H246.016V294.028C246.016 294.182 245.967 294.308 245.868 294.407C245.772 294.503 245.611 294.55 245.384 294.55H242.98L242.639 296.508ZM249.801 301.546C249.35 301.546 249.002 301.42 248.756 301.167C248.514 300.914 248.393 300.553 248.393 300.083V296.739H247.744C247.682 296.739 247.629 296.721 247.585 296.684C247.544 296.644 247.524 296.585 247.524 296.508V296.074L248.432 295.947L248.674 294.281C248.688 294.219 248.716 294.171 248.756 294.138C248.8 294.101 248.855 294.083 248.921 294.083H249.466V295.958H251.05V296.739H249.466V300.012C249.466 300.232 249.519 300.397 249.625 300.507C249.735 300.613 249.874 300.666 250.043 300.666C250.142 300.666 250.226 300.654 250.296 300.628C250.369 300.602 250.432 300.575 250.483 300.545C250.534 300.512 250.578 300.483 250.615 300.457C250.652 300.432 250.685 300.419 250.714 300.419C250.751 300.419 250.778 300.428 250.797 300.446C250.819 300.461 250.841 300.487 250.863 300.523L251.182 301.04C251.006 301.202 250.797 301.326 250.555 301.414C250.313 301.502 250.061 301.546 249.801 301.546ZM253.44 296.58C253.675 296.342 253.933 296.149 254.215 296.002C254.501 295.856 254.83 295.782 255.2 295.782C255.508 295.782 255.777 295.834 256.008 295.936C256.243 296.039 256.439 296.184 256.597 296.371C256.755 296.554 256.874 296.776 256.954 297.036C257.035 297.297 257.075 297.585 257.075 297.9V301.458H255.997V297.9C255.997 297.5 255.906 297.19 255.722 296.97C255.539 296.747 255.259 296.635 254.881 296.635C254.606 296.635 254.347 296.701 254.105 296.833C253.867 296.961 253.645 297.137 253.44 297.361V301.458H252.367V293.34H253.44V296.58Z" fill="#849AA9"/>
<path d="M237.524 170.425V171.729H231.244V170.425H233.644V163.209C233.644 162.953 233.652 162.692 233.668 162.425L231.82 163.985C231.74 164.049 231.657 164.092 231.572 164.113C231.492 164.129 231.415 164.129 231.34 164.113C231.271 164.097 231.207 164.073 231.148 164.041C231.095 164.004 231.052 163.964 231.02 163.921L230.484 163.169L233.956 160.185H235.356V170.425H237.524ZM244.989 165.049C244.946 165.124 244.898 165.177 244.845 165.209C244.792 165.241 244.725 165.257 244.645 165.257C244.554 165.257 244.456 165.231 244.349 165.177C244.242 165.119 244.117 165.055 243.973 164.985C243.829 164.916 243.658 164.855 243.461 164.801C243.269 164.743 243.042 164.713 242.781 164.713C242.568 164.713 242.373 164.74 242.197 164.793C242.026 164.841 241.88 164.913 241.757 165.009C241.64 165.1 241.549 165.209 241.485 165.337C241.421 165.46 241.389 165.593 241.389 165.737C241.389 165.929 241.448 166.089 241.565 166.217C241.682 166.345 241.837 166.457 242.029 166.553C242.221 166.644 242.44 166.727 242.685 166.801C242.93 166.876 243.181 166.956 243.437 167.041C243.693 167.127 243.944 167.225 244.189 167.337C244.434 167.449 244.653 167.588 244.845 167.753C245.037 167.913 245.192 168.111 245.309 168.345C245.426 168.575 245.485 168.855 245.485 169.185C245.485 169.569 245.416 169.924 245.277 170.249C245.138 170.575 244.936 170.857 244.669 171.097C244.402 171.337 244.069 171.524 243.669 171.657C243.274 171.791 242.821 171.857 242.309 171.857C242.026 171.857 241.752 171.831 241.485 171.777C241.224 171.729 240.973 171.663 240.733 171.577C240.498 171.487 240.277 171.38 240.069 171.257C239.866 171.135 239.685 171.001 239.525 170.857L239.925 170.201C239.973 170.121 240.032 170.06 240.101 170.017C240.176 169.969 240.266 169.945 240.373 169.945C240.485 169.945 240.594 169.983 240.701 170.057C240.813 170.127 240.941 170.204 241.085 170.289C241.234 170.375 241.413 170.455 241.621 170.529C241.829 170.599 242.088 170.633 242.397 170.633C242.653 170.633 242.874 170.604 243.061 170.545C243.248 170.481 243.402 170.396 243.525 170.289C243.648 170.183 243.738 170.063 243.797 169.929C243.856 169.791 243.885 169.644 243.885 169.489C243.885 169.281 243.826 169.111 243.709 168.977C243.592 168.844 243.434 168.729 243.237 168.633C243.045 168.537 242.824 168.452 242.573 168.377C242.328 168.303 242.077 168.223 241.821 168.137C241.565 168.052 241.312 167.953 241.061 167.841C240.816 167.729 240.594 167.588 240.397 167.417C240.205 167.241 240.05 167.031 239.933 166.785C239.816 166.535 239.757 166.231 239.757 165.873C239.757 165.548 239.821 165.239 239.949 164.945C240.082 164.652 240.274 164.393 240.525 164.169C240.781 163.945 241.093 163.769 241.461 163.641C241.834 163.508 242.264 163.441 242.749 163.441C243.298 163.441 243.797 163.529 244.245 163.705C244.693 163.881 245.069 164.121 245.373 164.425L244.989 165.049ZM250.197 171.857C249.52 171.857 248.997 171.668 248.629 171.289C248.267 170.905 248.085 170.367 248.085 169.673V164.921H247.189C247.093 164.921 247.011 164.892 246.941 164.833C246.872 164.769 246.837 164.676 246.837 164.553V163.857L248.157 163.665L248.533 161.305C248.56 161.215 248.605 161.143 248.669 161.089C248.733 161.031 248.819 161.001 248.925 161.001H249.805V163.681H252.069V164.921H249.805V169.553C249.805 169.847 249.877 170.071 250.021 170.225C250.165 170.38 250.357 170.457 250.597 170.457C250.731 170.457 250.845 170.441 250.941 170.409C251.037 170.372 251.12 170.335 251.189 170.297C251.259 170.255 251.317 170.217 251.365 170.185C251.419 170.148 251.469 170.129 251.517 170.129C251.613 170.129 251.691 170.183 251.749 170.289L252.261 171.129C251.995 171.364 251.68 171.545 251.317 171.673C250.955 171.796 250.581 171.857 250.197 171.857Z" fill="white"/>
<path d="M137.659 252.1C137.846 252.1 137.993 252.156 138.099 252.268C138.206 252.375 138.259 252.513 138.259 252.684V253.724H130.467V253.14C130.467 253.023 130.491 252.9 130.539 252.772C130.587 252.644 130.665 252.527 130.771 252.42L134.355 248.828C134.659 248.524 134.929 248.233 135.163 247.956C135.403 247.679 135.606 247.401 135.771 247.124C135.942 246.847 136.07 246.567 136.155 246.284C136.246 245.996 136.291 245.695 136.291 245.38C136.291 245.076 136.243 244.809 136.147 244.58C136.057 244.345 135.929 244.153 135.763 244.004C135.603 243.849 135.409 243.735 135.179 243.66C134.955 243.58 134.707 243.54 134.435 243.54C134.174 243.54 133.931 243.577 133.707 243.652C133.489 243.727 133.291 243.831 133.115 243.964C132.945 244.097 132.801 244.257 132.683 244.444C132.571 244.625 132.489 244.825 132.435 245.044C132.355 245.263 132.251 245.409 132.123 245.484C132.001 245.559 131.819 245.575 131.579 245.532L130.675 245.372C130.755 244.828 130.905 244.351 131.123 243.94C131.347 243.529 131.627 243.188 131.963 242.916C132.299 242.639 132.683 242.431 133.115 242.292C133.553 242.148 134.025 242.076 134.531 242.076C135.043 242.076 135.513 242.153 135.939 242.308C136.371 242.457 136.742 242.673 137.051 242.956C137.366 243.233 137.611 243.572 137.787 243.972C137.963 244.372 138.051 244.823 138.051 245.324C138.051 245.751 137.987 246.145 137.859 246.508C137.737 246.871 137.569 247.217 137.355 247.548C137.142 247.879 136.891 248.201 136.603 248.516C136.321 248.825 136.022 249.14 135.707 249.46L132.923 252.308C133.153 252.244 133.382 252.193 133.611 252.156C133.846 252.119 134.067 252.1 134.275 252.1H137.659ZM142.205 246.644C142.381 246.463 142.562 246.3 142.749 246.156C142.941 246.007 143.143 245.879 143.357 245.772C143.57 245.665 143.797 245.583 144.037 245.524C144.277 245.465 144.538 245.436 144.821 245.436C145.269 245.436 145.661 245.511 145.997 245.66C146.338 245.809 146.623 246.02 146.853 246.292C147.087 246.564 147.263 246.892 147.381 247.276C147.498 247.655 147.557 248.073 147.557 248.532V253.724H145.845V248.532C145.845 247.983 145.717 247.556 145.461 247.252C145.21 246.948 144.826 246.796 144.309 246.796C143.925 246.796 143.567 246.884 143.237 247.06C142.911 247.236 142.605 247.476 142.317 247.78V253.724H140.597V245.564H141.637C141.871 245.564 142.021 245.673 142.085 245.892L142.205 246.644ZM155.253 247.572C155.013 247.263 154.749 247.047 154.461 246.924C154.173 246.801 153.861 246.74 153.525 246.74C152.853 246.74 152.328 246.988 151.949 247.484C151.571 247.975 151.381 248.703 151.381 249.668C151.381 250.169 151.424 250.599 151.509 250.956C151.595 251.308 151.717 251.596 151.877 251.82C152.037 252.044 152.232 252.207 152.461 252.308C152.691 252.409 152.949 252.46 153.237 252.46C153.675 252.46 154.051 252.367 154.365 252.18C154.685 251.988 154.981 251.719 155.253 251.372V247.572ZM156.973 241.884V253.724H155.933C155.704 253.724 155.557 253.615 155.493 253.396L155.341 252.508C155 252.908 154.611 253.231 154.173 253.476C153.741 253.721 153.237 253.844 152.661 253.844C152.203 253.844 151.787 253.753 151.413 253.572C151.04 253.385 150.72 253.116 150.453 252.764C150.187 252.412 149.979 251.977 149.829 251.46C149.685 250.937 149.613 250.34 149.613 249.668C149.613 249.06 149.693 248.497 149.853 247.98C150.019 247.463 150.253 247.015 150.557 246.636C150.861 246.252 151.229 245.953 151.661 245.74C152.099 245.521 152.587 245.412 153.125 245.412C153.605 245.412 154.013 245.489 154.349 245.644C154.685 245.793 154.987 246.004 155.253 246.276V241.884H156.973Z" fill="white"/>
<path d="M65.7315 180.75C65.8115 180.206 65.9608 179.728 66.1795 179.318C66.4035 178.907 66.6835 178.566 67.0195 178.294C67.3555 178.016 67.7395 177.808 68.1715 177.67C68.6088 177.526 69.0808 177.454 69.5875 177.454C70.0995 177.454 70.5635 177.528 70.9795 177.678C71.4008 177.822 71.7608 178.024 72.0595 178.286C72.3635 178.547 72.5955 178.859 72.7555 179.222C72.9208 179.584 73.0035 179.982 73.0035 180.414C73.0035 180.782 72.9581 181.107 72.8675 181.39C72.7821 181.667 72.6568 181.912 72.4915 182.126C72.3315 182.339 72.1341 182.518 71.8995 182.662C71.6648 182.806 71.4008 182.926 71.1075 183.022C71.8221 183.23 72.3581 183.563 72.7155 184.022C73.0728 184.475 73.2515 185.046 73.2515 185.734C73.2515 186.288 73.1475 186.782 72.9395 187.214C72.7315 187.646 72.4488 188.011 72.0915 188.31C71.7395 188.608 71.3261 188.838 70.8515 188.998C70.3821 189.152 69.8835 189.23 69.3555 189.23C68.7635 189.23 68.2515 189.16 67.8195 189.022C67.3875 188.878 67.0141 188.675 66.6995 188.414C66.3901 188.147 66.1315 187.827 65.9235 187.454C65.7155 187.08 65.5395 186.662 65.3955 186.198L66.1395 185.886C66.3368 185.8 66.5235 185.776 66.6995 185.814C66.8808 185.851 67.0115 185.95 67.0915 186.11C67.1768 186.28 67.2728 186.464 67.3795 186.662C67.4861 186.854 67.6221 187.032 67.7875 187.198C67.9581 187.358 68.1661 187.494 68.4115 187.606C68.6621 187.712 68.9688 187.766 69.3315 187.766C69.6995 187.766 70.0195 187.707 70.2915 187.59C70.5688 187.467 70.7981 187.312 70.9795 187.126C71.1661 186.934 71.3048 186.72 71.3955 186.486C71.4861 186.251 71.5315 186.019 71.5315 185.79C71.5315 185.502 71.4968 185.238 71.4275 184.998C71.3581 184.752 71.2221 184.544 71.0195 184.374C70.8221 184.203 70.5395 184.07 70.1715 183.974C69.8088 183.872 69.3315 183.822 68.7395 183.822V182.582C69.2248 182.576 69.6328 182.528 69.9635 182.438C70.2995 182.342 70.5661 182.214 70.7635 182.054C70.9661 181.888 71.1101 181.691 71.1955 181.462C71.2861 181.232 71.3315 180.982 71.3315 180.71C71.3315 180.416 71.2861 180.158 71.1955 179.934C71.1048 179.71 70.9768 179.523 70.8115 179.374C70.6515 179.219 70.4595 179.104 70.2355 179.03C70.0115 178.955 69.7635 178.918 69.4915 178.918C69.2301 178.918 68.9875 178.955 68.7635 179.03C68.5448 179.104 68.3475 179.208 68.1715 179.342C68.0008 179.475 67.8568 179.635 67.7395 179.822C67.6221 180.003 67.5368 180.203 67.4835 180.422C67.4088 180.64 67.3075 180.787 67.1795 180.862C67.0568 180.936 66.8755 180.952 66.6355 180.91L65.7315 180.75ZM77.2207 182.454C77.4767 181.936 77.7861 181.531 78.1487 181.238C78.5114 180.939 78.9461 180.79 79.4527 180.79C79.6287 180.79 79.7941 180.811 79.9487 180.854C80.1034 180.891 80.2421 180.95 80.3647 181.03L80.2447 182.326C80.2234 182.416 80.1887 182.48 80.1407 182.518C80.0981 182.55 80.0394 182.566 79.9647 182.566C79.8847 182.566 79.7701 182.552 79.6207 182.526C79.4714 182.494 79.3141 182.478 79.1487 182.478C78.9087 182.478 78.6954 182.512 78.5087 182.582C78.3274 182.651 78.1621 182.752 78.0127 182.886C77.8687 183.019 77.7407 183.182 77.6287 183.374C77.5167 183.566 77.4127 183.784 77.3167 184.03V189.102H75.5967V180.942H76.5967C76.7781 180.942 76.9034 180.976 76.9727 181.046C77.0421 181.11 77.0901 181.224 77.1167 181.39L77.2207 182.454ZM86.9254 182.95C86.6854 182.64 86.4214 182.424 86.1334 182.302C85.8454 182.179 85.5334 182.118 85.1974 182.118C84.5254 182.118 84 182.366 83.6214 182.862C83.2427 183.352 83.0534 184.08 83.0534 185.046C83.0534 185.547 83.096 185.976 83.1814 186.334C83.2667 186.686 83.3894 186.974 83.5494 187.198C83.7094 187.422 83.904 187.584 84.1334 187.686C84.3627 187.787 84.6214 187.838 84.9094 187.838C85.3467 187.838 85.7227 187.744 86.0374 187.558C86.3574 187.366 86.6534 187.096 86.9254 186.75V182.95ZM88.6454 177.262V189.102H87.6054C87.376 189.102 87.2294 188.992 87.1654 188.774L87.0134 187.886C86.672 188.286 86.2827 188.608 85.8454 188.854C85.4134 189.099 84.9094 189.222 84.3334 189.222C83.8747 189.222 83.4587 189.131 83.0854 188.95C82.712 188.763 82.392 188.494 82.1254 188.142C81.8587 187.79 81.6507 187.355 81.5014 186.838C81.3574 186.315 81.2854 185.718 81.2854 185.046C81.2854 184.438 81.3654 183.875 81.5254 183.358C81.6907 182.84 81.9254 182.392 82.2294 182.014C82.5334 181.63 82.9014 181.331 83.3334 181.118C83.7707 180.899 84.2587 180.79 84.7974 180.79C85.2774 180.79 85.6854 180.867 86.0214 181.022C86.3574 181.171 86.6587 181.382 86.9254 181.654V177.262H88.6454Z" fill="white"/>
<path d="M83.8744 124.35V120.142C83.8744 119.806 83.8984 119.438 83.9464 119.038L80.0744 124.35H83.8744ZM86.9624 124.35V125.342C86.9624 125.438 86.9304 125.52 86.8664 125.59C86.8078 125.659 86.7171 125.694 86.5944 125.694H85.3704V128.606H83.8744V125.694H78.8904C78.7678 125.694 78.6611 125.659 78.5704 125.59C78.4851 125.515 78.4291 125.424 78.4024 125.318L78.2264 124.438L83.7544 117.078H85.3704V124.35H86.9624ZM91.5317 128.734C90.8544 128.734 90.3317 128.544 89.9637 128.166C89.601 127.782 89.4197 127.243 89.4197 126.55V121.798H88.5237C88.4277 121.798 88.345 121.768 88.2757 121.71C88.2064 121.646 88.1717 121.552 88.1717 121.43V120.734L89.4917 120.542L89.8677 118.182C89.8944 118.091 89.9397 118.019 90.0037 117.966C90.0677 117.907 90.153 117.878 90.2597 117.878H91.1397V120.558H93.4037V121.798H91.1397V126.43C91.1397 126.723 91.2117 126.947 91.3557 127.102C91.4997 127.256 91.6917 127.334 91.9317 127.334C92.065 127.334 92.1797 127.318 92.2757 127.286C92.3717 127.248 92.4544 127.211 92.5237 127.174C92.593 127.131 92.6517 127.094 92.6997 127.062C92.753 127.024 92.8037 127.006 92.8517 127.006C92.9477 127.006 93.025 127.059 93.0837 127.166L93.5957 128.006C93.329 128.24 93.0144 128.422 92.6517 128.55C92.289 128.672 91.9157 128.734 91.5317 128.734ZM96.9594 121.414C97.2954 121.083 97.6634 120.819 98.0634 120.622C98.4634 120.419 98.9301 120.318 99.4634 120.318C99.9114 120.318 100.303 120.392 100.639 120.542C100.981 120.691 101.266 120.902 101.495 121.174C101.73 121.446 101.906 121.774 102.023 122.158C102.141 122.536 102.199 122.955 102.199 123.414V128.606H100.487V123.414C100.487 122.864 100.359 122.438 100.103 122.134C99.8528 121.83 99.4688 121.678 98.9514 121.678C98.5674 121.678 98.2101 121.766 97.8794 121.942C97.5541 122.118 97.2474 122.358 96.9594 122.662V128.606H95.2394V116.766H96.9594V121.414Z" fill="white"/>
<path d="M126.814 87.3438C127.091 87.2852 127.355 87.2425 127.606 87.2158C127.862 87.1892 128.107 87.1758 128.342 87.1758C128.944 87.1758 129.475 87.2665 129.934 87.4478C130.398 87.6238 130.784 87.8692 131.094 88.1838C131.408 88.4985 131.643 88.8692 131.798 89.2958C131.958 89.7172 132.038 90.1758 132.038 90.6718C132.038 91.2852 131.931 91.8425 131.718 92.3438C131.504 92.8452 131.208 93.2745 130.83 93.6318C130.451 93.9838 130.003 94.2558 129.486 94.4478C128.974 94.6398 128.419 94.7358 127.822 94.7358C127.47 94.7358 127.134 94.7012 126.814 94.6318C126.499 94.5625 126.203 94.4692 125.926 94.3518C125.648 94.2292 125.392 94.0905 125.158 93.9358C124.923 93.7758 124.712 93.6105 124.526 93.4398L125.054 92.7038C125.166 92.5438 125.315 92.4638 125.502 92.4638C125.619 92.4638 125.747 92.5065 125.886 92.5918C126.024 92.6772 126.184 92.7705 126.366 92.8718C126.552 92.9678 126.771 93.0585 127.022 93.1438C127.272 93.2292 127.571 93.2718 127.918 93.2718C128.296 93.2718 128.635 93.2105 128.934 93.0878C129.232 92.9652 129.483 92.7945 129.686 92.5758C129.894 92.3518 130.051 92.0852 130.158 91.7758C130.264 91.4665 130.318 91.1278 130.318 90.7598C130.318 90.4238 130.267 90.1225 130.166 89.8558C130.07 89.5892 129.923 89.3625 129.726 89.1758C129.534 88.9892 129.291 88.8478 128.998 88.7518C128.704 88.6505 128.366 88.5998 127.982 88.5998C127.699 88.5998 127.408 88.6238 127.11 88.6718C126.816 88.7198 126.518 88.7945 126.214 88.8958L125.142 88.5918L126.086 83.0878H131.662V83.8318C131.662 84.0772 131.584 84.2772 131.43 84.4318C131.275 84.5865 131.016 84.6638 130.654 84.6638H127.278L126.814 87.3438ZM137.159 94.7358C136.482 94.7358 135.959 94.5465 135.591 94.1678C135.228 93.7838 135.047 93.2452 135.047 92.5518V87.7998H134.151C134.055 87.7998 133.972 87.7705 133.903 87.7118C133.834 87.6478 133.799 87.5545 133.799 87.4318V86.7358L135.119 86.5438L135.495 84.1838C135.522 84.0932 135.567 84.0212 135.631 83.9678C135.695 83.9092 135.78 83.8798 135.887 83.8798H136.767V86.5598H139.031V87.7998H136.767V92.4318C136.767 92.7252 136.839 92.9492 136.983 93.1038C137.127 93.2585 137.319 93.3358 137.559 93.3358C137.692 93.3358 137.807 93.3198 137.903 93.2878C137.999 93.2505 138.082 93.2132 138.151 93.1758C138.22 93.1332 138.279 93.0958 138.327 93.0638C138.38 93.0265 138.431 93.0078 138.479 93.0078C138.575 93.0078 138.652 93.0612 138.711 93.1678L139.223 94.0078C138.956 94.2425 138.642 94.4238 138.279 94.5518C137.916 94.6745 137.543 94.7358 137.159 94.7358ZM142.587 87.4158C142.923 87.0852 143.291 86.8212 143.691 86.6238C144.091 86.4212 144.557 86.3198 145.091 86.3198C145.539 86.3198 145.931 86.3945 146.267 86.5438C146.608 86.6932 146.893 86.9038 147.123 87.1758C147.357 87.4478 147.533 87.7758 147.651 88.1598C147.768 88.5385 147.827 88.9572 147.827 89.4158V94.6078H146.115V89.4158C146.115 88.8665 145.987 88.4398 145.731 88.1358C145.48 87.8318 145.096 87.6798 144.579 87.6798C144.195 87.6798 143.837 87.7678 143.507 87.9438C143.181 88.1198 142.875 88.3598 142.587 88.6638V94.6078H140.867V82.7678H142.587V87.4158Z" fill="white"/>
<defs>
<filter id="filter0_d_303_192" x="40.0044" y="74.8799" width="113.51" height="117.246" filterUnits="userSpaceOnUse" color-interpolation-filters="sRGB">
<feFlood flood-opacity="0" result="BackgroundImageFix"/>
<feColorMatrix in="SourceAlpha" type="matrix" values="0 0 0 0 0 0 0 0 0 0 0 0 0 0 0 0 0 0 127 0" result="hardAlpha"/>
<feOffset dx="5" dy="15"/>
<feGaussianBlur stdDeviation="12.5"/>
<feColorMatrix type="matrix" values="0 0 0 0 0 0 0 0 0 0 0 0 0 0 0 0 0 0 0.25 0"/>
<feBlend mode="multiply" in2="BackgroundImageFix" result="effect1_dropShadow_303_192"/>
<feBlend mode="normal" in="SourceGraphic" in2="effect1_dropShadow_303_192" result="shape"/>
</filter>
<filter id="filter1_d_303_192" x="35.9812" y="130.405" width="104.374" height="142.394" filterUnits="userSpaceOnUse" color-interpolation-filters="sRGB">
<feFlood flood-opacity="0" result="BackgroundImageFix"/>
<feColorMatrix in="SourceAlpha" type="matrix" values="0 0 0 0 0 0 0 0 0 0 0 0 0 0 0 0 0 0 127 0" result="hardAlpha"/>
<feOffset dx="5" dy="15"/>
<feGaussianBlur stdDeviation="12.5"/>
<feColorMatrix type="matrix" values="0 0 0 0 0 0 0 0 0 0 0 0 0 0 0 0 0 0 0.25 0"/>
<feBlend mode="multiply" in2="BackgroundImageFix" result="effect1_dropShadow_303_192"/>
<feBlend mode="normal" in="SourceGraphic" in2="effect1_dropShadow_303_192" result="shape"/>
</filter>
<filter id="filter2_d_303_192" x="57.5417" y="197.065" width="177.369" height="115.164" filterUnits="userSpaceOnUse" color-interpolation-filters="sRGB">
<feFlood flood-opacity="0" result="BackgroundImageFix"/>
<feColorMatrix in="SourceAlpha" type="matrix" values="0 0 0 0 0 0 0 0 0 0 0 0 0 0 0 0 0 0 127 0" result="hardAlpha"/>
<feOffset dx="5" dy="15"/>
<feGaussianBlur stdDeviation="12.5"/>
<feColorMatrix type="matrix" values="0 0 0 0 0 0 0 0 0 0 0 0 0 0 0 0 0 0 0.25 0"/>
<feBlend mode="multiply" in2="BackgroundImageFix" result="effect1_dropShadow_303_192"/>
<feBlend mode="normal" in="SourceGraphic" in2="effect1_dropShadow_303_192" result="shape"/>
</filter>
</defs>
</svg>
